<svg width="35" height="36" viewBox="0 0 35 36" fill="none" xmlns="http://www.w3.org/2000/svg">
<path d="M34.3797 18.6474C27.8651 16.7664 26.6132 15.4577 24.8155 8.64854C24.714 8.26538 24.3808 8 24 8C23.6192 8 23.286 8.2654 23.1845 8.64854C21.3869 15.4576 20.135 16.7663 13.6203 18.6474C13.2538 18.7536 13 19.1019 13 19.5C13 19.8981 13.2539 20.2464 13.6203 20.3526C20.1349 22.2319 21.3851 23.5407 23.1845 30.3515C23.286 30.7346 23.6192 31 24 31C24.3808 31 24.714 30.7346 24.8155 30.3515C26.6147 23.5407 27.865 22.2337 34.3797 20.3526C34.7462 20.2464 35 19.8981 35 19.5C35 19.1019 34.7461 18.7536 34.3797 18.6474Z" fill="black"/>
<path d="M3.6469 8.35042C7.7799 9.49204 8.50936 10.2217 9.64958 14.3531C9.75547 14.7353 10.1046 15 10.5 15C10.8954 15 11.2462 14.7353 11.3504 14.3531C12.4904 10.2217 13.2201 9.49191 17.3531 8.35042C17.7353 8.24453 18 7.89709 18 7.5C18 7.10291 17.7353 6.75547 17.3531 6.64958C13.2201 5.50796 12.4906 4.7783 11.3504 0.646902C11.2462 0.264708 10.8971 0 10.5 0C10.1029 0 9.75547 0.264725 9.64958 0.646902C8.50796 4.77991 7.7783 5.50809 3.6469 6.64958C3.26471 6.75547 3 7.10291 3 7.5C3 7.89709 3.26472 8.24453 3.6469 8.35042Z" fill="black"/>
<path d="M15.3484 27.1432C10.9268 25.9229 10.0769 25.0727 8.85666 20.6518C8.74999 20.2667 8.4 20 8 20C7.6 20 7.25001 20.2667 7.14334 20.6518C5.92334 25.0725 5.07334 25.9231 0.651645 27.1432C0.266648 27.2499 0 27.5999 0 28C0 28.4001 0.266665 28.7501 0.651645 28.8568C5.07317 30.0788 5.92308 30.9273 7.14334 35.3482C7.25001 35.7333 7.6 36 8 36C8.4 36 8.74999 35.7333 8.85666 35.3482C10.0767 30.9257 10.9267 30.0769 15.3484 28.8568C15.7334 28.7501 16 28.4001 16 28C16 27.5999 15.7317 27.2499 15.3484 27.1432Z" fill="black"/>
</svg>
