<svg width="30" height="31" viewBox="0 0 30 31" fill="none" xmlns="http://www.w3.org/2000/svg">
<path d="M25.27 24.769L27.1467 24.032C27.2278 23.9975 27.3155 23.97 27.3965 23.9424V9.67064H25.27V24.769ZM20.3285 23.6256C21.1048 24.0113 21.8812 24.6519 21.9824 25.4853C22.0027 25.6851 21.9892 25.8848 21.9284 26.0777L22.4617 25.871V16.8685H20.3352V23.6256H20.3285ZM15.3869 21.6005C15.6772 21.5936 15.9607 21.6487 16.2443 21.7727L17.5202 22.3444V14.2029H15.3937V21.6005H15.3869ZM10.2564 23.0263L8.48766 23.0332C8.01511 23.0332 7.63707 23.4396 7.63707 23.908L7.65732 29.8247C7.65732 30.3344 8.04211 30.7132 8.51467 30.7132L10.2834 30.7064C10.7492 30.7064 11.1272 30.3206 11.134 29.8316L11.1137 23.8942C11.1137 23.412 10.7222 23.0194 10.2564 23.0263ZM6.98224 29.4734L6.96199 24.1146H0.3125V29.4734H6.98224ZM11.7888 24.2179L11.809 29.5079L13.3415 29.5698L19.1809 30.9612C19.4914 31.037 19.7749 31.0025 20.0585 30.851L28.1391 26.5461C28.8682 26.1534 29.226 25.6988 29.3002 25.3062C29.4285 24.5692 28.5239 24.3557 27.8421 24.5417L27.3965 24.6794L25.0743 25.5886C25.0675 25.5955 25.054 25.5955 25.0405 25.6024L22.9343 26.429C22.9275 26.4358 22.914 26.4358 22.9005 26.4427L20.7875 27.2693C20.7133 27.2968 20.6323 27.3037 20.5513 27.2693L15.7312 25.4578C15.3127 25.2993 15.549 24.6519 15.9607 24.8103L20.639 26.5667C21.3276 26.1534 21.5639 25.5955 20.9901 24.9412C20.7403 24.6588 20.3622 24.397 19.8694 24.1766C19.8559 24.1697 19.8424 24.1697 19.8357 24.1628L17.7294 23.2123C17.7159 23.2054 17.7092 23.2054 17.6957 23.1985L15.9675 22.4202C15.576 22.248 15.1844 22.2687 14.8199 22.4753L11.7888 24.2179ZM10.4454 22.3513C11.0529 22.4271 11.5525 22.8748 11.7213 23.4671L12.5719 22.9781V18.9831H10.4454V22.3513ZM11.4512 5.15217C9.87832 3.54728 7.32653 3.54728 5.75361 5.15217C4.18068 6.75705 4.18068 9.36069 5.75361 10.9656C7.32653 12.5705 9.87832 12.5705 11.4512 10.9656C13.0242 9.36069 13.0242 6.75705 11.4512 5.15217ZM9.73655 6.0476C10.1821 6.0476 10.1821 6.73639 9.73655 6.73639H8.59567C8.28514 6.73639 8.00836 6.81215 7.81259 6.92925C7.66407 7.01879 7.57631 7.12211 7.57631 7.22543C7.57631 7.56294 8.10962 7.64559 8.64293 7.72136C9.46652 7.84534 10.2901 7.96244 10.2901 8.89919C10.2901 9.5811 9.57453 9.97371 8.92646 10.0564V10.2906H8.25139V10.077H7.34679C6.90124 10.077 6.90124 9.38824 7.34679 9.38824H8.59567C8.90621 9.38824 9.18974 9.31247 9.38551 9.19538C9.53403 9.10583 9.62179 9.00251 9.62179 8.89919C9.62179 8.56169 9.08848 8.47903 8.55517 8.40326C7.73158 8.27928 6.90799 8.16219 6.90799 7.22543C6.90799 6.55041 7.61682 6.1578 8.26489 6.06826L8.27164 5.82029L8.93996 5.84096L8.93321 6.04071H9.73655V6.0476ZM21.5099 4.59424C20.1125 3.16844 17.8442 3.16844 16.4468 4.59424C15.0494 6.02004 15.0494 8.33439 16.4468 9.76707C17.8442 11.1929 20.1125 11.1929 21.5099 9.76707C22.9073 8.33439 22.9073 6.02004 21.5099 4.59424ZM19.9977 5.33125C20.4432 5.33125 20.4432 6.02004 19.9977 6.02004H18.9783C18.7016 6.02004 18.4585 6.08203 18.2898 6.19224C18.1682 6.26112 18.094 6.35066 18.094 6.42643C18.094 6.70195 18.5598 6.77083 19.0188 6.83971C19.7749 6.94991 20.531 7.06012 20.531 7.928C20.531 8.5548 19.8829 8.91297 19.3024 9.00251V9.1816H18.6273V9.02318H17.8442C17.3987 9.02318 17.3987 8.33438 17.8442 8.33438H18.9716C19.2484 8.33438 19.4914 8.27239 19.6602 8.16219C19.7817 8.09331 19.8559 8.00376 19.8559 7.928C19.8559 7.65248 19.3901 7.5836 18.9311 7.51472C18.175 7.40452 17.4189 7.29431 17.4189 6.42643C17.4189 5.79963 18.067 5.44146 18.6408 5.3588L18.6475 5.16594L19.3226 5.19349L19.3159 5.33814H19.9977V5.33125ZM6.41518 15.7733C5.16629 14.4991 3.14107 14.4991 1.89218 15.7733C0.643287 17.0476 0.643287 19.1071 1.89218 20.3814C3.14107 21.6556 5.16629 21.6556 6.41518 20.3814C7.66407 19.1071 7.66407 17.0407 6.41518 15.7733ZM5.07178 16.3795C5.51733 16.3795 5.51733 17.0683 5.07178 17.0683H4.15368C3.91065 17.0683 3.70138 17.1234 3.55286 17.2198C3.45835 17.2818 3.39759 17.3438 3.39759 17.4058C3.39759 17.6262 3.80264 17.6813 4.20768 17.7433C4.90301 17.8466 5.59834 17.9499 5.59834 18.7627C5.59834 19.3275 5.03128 19.6719 4.49797 19.7546V19.8854H3.82289V19.7821H3.15457C2.70902 19.7821 2.70902 19.0933 3.15457 19.0933H4.16718C4.41021 19.0933 4.61948 19.0382 4.768 18.9418C4.86251 18.8798 4.93002 18.8178 4.93002 18.7558C4.93002 18.5423 4.52497 18.4803 4.11992 18.4183C3.4246 18.315 2.72927 18.2186 2.72927 17.3989C2.72927 16.8341 3.29633 16.4897 3.82964 16.407L3.83639 16.2624L4.50472 16.283L4.49797 16.3795H5.07178ZM14.3541 0.840326C14.0435 0.523482 13.5035 0.743896 13.5035 1.1985C13.5035 1.6531 14.0435 1.8804 14.3541 1.55667C14.5498 1.36381 14.5498 1.04008 14.3541 0.840326ZM14.003 0C15.0426 0 15.5692 1.28804 14.8334 2.04571C14.0975 2.7965 12.8284 2.25924 12.8284 1.1985C12.8284 0.537258 13.355 0 14.003 0ZM12.5246 15.0639C12.2141 14.747 11.674 14.9743 11.674 15.4221C11.674 15.8767 12.2141 16.104 12.5246 15.7802C12.7204 15.5805 12.7204 15.2636 12.5246 15.0639ZM12.1736 14.2236C13.2132 14.2236 13.7397 15.5116 13.0039 16.2693C12.2681 17.0201 10.9989 16.4828 10.9989 15.4221C11.0057 14.7608 11.5255 14.2236 12.1736 14.2236ZM25.3173 2.25924C25.0068 1.94239 24.4667 2.1697 24.4667 2.61741C24.4667 3.06513 25.0068 3.29243 25.3173 2.97558C25.5063 2.78272 25.5063 2.45899 25.3173 2.25924ZM24.9595 1.4258C25.9991 1.4258 26.5257 2.72073 25.7898 3.47151C25.054 4.2223 23.7849 3.68504 23.7849 2.6243C23.7849 1.96306 24.3114 1.4258 24.9595 1.4258ZM1.89218 10.1184C1.6829 9.90483 1.31161 10.0564 1.31161 10.3594C1.31161 10.6625 1.67615 10.8209 1.89218 10.6005C2.02719 10.4696 2.02719 10.2492 1.89218 10.1184ZM1.6559 9.32625C2.55375 9.32625 3.00605 10.4421 2.37148 11.0896C1.73691 11.737 0.643287 11.2755 0.643287 10.3594C0.636536 9.78774 1.09559 9.32625 1.6559 9.32625Z" fill="black"/>
</svg>
