<svg width="52" height="55" viewBox="0 0 52 55" fill="none" xmlns="http://www.w3.org/2000/svg">
<path d="M38.4537 12.928C36.464 9.43111 34.1082 6.41283 31.8215 4.42747C28.5837 1.61502 26.5986 1.79017 25.5047 2.43027C24.8092 2.83672 24.0976 3.65431 23.8697 5.28476C21.0026 10.3444 16.9014 14.6446 11.9983 17.7327L5.55947 21.5029C3.45697 22.734 1.94861 24.7312 1.31763 27.1278C0.68436 29.5222 1.00444 32.017 2.22032 34.1495C3.90832 37.1162 6.9826 38.777 10.1401 38.777C10.6858 38.777 11.2316 38.7257 11.7751 38.6252L19.0316 51.3722C20.1738 53.3764 22.2509 54.5 24.3834 54.5C25.4288 54.5 26.4882 54.2314 27.4577 53.6638C28.8785 52.8322 29.8987 51.482 30.3247 49.8632C30.753 48.2444 30.5366 46.5602 29.7144 45.1165L22.7739 32.9275C27.4164 30.7177 32.5082 29.5591 37.6271 29.5591H37.6824C38.3548 29.8348 38.9374 29.9422 39.4395 29.9422C40.0612 29.9422 40.5563 29.774 40.9409 29.5498C42.0348 28.9097 43.1747 27.2536 42.394 23.0023C41.8436 20.0006 40.4435 16.4219 38.4538 12.9272L38.4537 12.928ZM28.1275 46.0423C28.7032 47.056 28.8552 48.2404 28.5558 49.3803C28.2541 50.5202 27.5379 51.471 26.5408 52.055C24.4682 53.2696 21.8085 52.5455 20.6131 50.4432L13.58 38.0885C13.9554 37.932 14.3261 37.7498 14.6877 37.5372L21.1265 33.767C21.1311 33.7647 21.1357 33.7623 21.1403 33.76L28.1275 46.0423ZM20.2472 32.1388C20.238 32.1434 20.2311 32.1481 20.2219 32.1528L13.7695 35.93C10.283 37.9716 5.81087 36.7546 3.79821 33.2203C2.82873 31.5151 2.57311 29.5202 3.07969 27.6048C3.58628 25.6893 4.79069 24.0915 6.47179 23.1058L12.9242 19.3286C12.9334 19.3239 12.9403 19.3192 12.9495 19.3145C17.3272 16.5605 21.0968 12.8861 23.9849 8.58763C24.0056 8.7161 24.0287 8.84458 24.0517 8.97773C24.6021 11.9794 26.0022 15.5581 27.9919 19.0552C29.9815 22.5523 32.3374 25.5704 34.6241 27.5558C34.7254 27.6446 34.8244 27.7286 34.9234 27.8104C29.8111 28.1958 24.789 29.6697 20.2472 32.1388ZM40.0289 27.9458C38.5067 28.8381 33.7929 25.5351 29.5765 18.1278C25.3602 10.7205 24.8972 4.92757 26.4193 4.03775C27.9415 3.14542 32.6554 6.44841 36.8717 13.8557C38.76 17.1751 40.0841 20.5461 40.6 23.3442C41.0352 25.7198 40.8165 27.4833 40.0289 27.9458ZM50.562 16.4415C50.4515 16.8549 50.083 17.1282 49.68 17.1282C49.6017 17.1282 49.5211 17.1189 49.4428 17.0955C48.9546 16.9623 48.6668 16.4555 48.7957 15.9603C50.3616 10.0293 46.8797 3.91176 41.0328 2.32287C40.5446 2.18972 40.2567 1.68284 40.3857 1.18763C40.5169 0.692417 41.0166 0.400426 41.5048 0.531208C48.328 2.38596 52.3907 9.5226 50.562 16.4415ZM43.8997 9.73968C44.7794 11.286 45.0143 13.0871 44.5584 14.811C44.4501 15.2245 44.0794 15.4978 43.6764 15.4978C43.5981 15.4978 43.5175 15.4884 43.4392 15.4651C42.951 15.3319 42.6631 14.825 42.7921 14.3298C43.1214 13.0848 42.9533 11.7836 42.3177 10.6647C41.6821 9.54814 40.655 8.74928 39.4276 8.41523C38.9394 8.28208 38.6516 7.7752 38.7805 7.27999C38.9118 6.78478 39.4138 6.49279 39.8997 6.62357C41.5991 7.08608 43.02 8.19331 43.8997 9.73968Z" fill="black" stroke="black"/>
</svg>
