<svg width="32" height="24" viewBox="0 0 32 24" fill="none" xmlns="http://www.w3.org/2000/svg">
<g clip-path="url(#clip0_1_62)">
<path d="M15.4824 12.4905V10.3895C15.4824 10.0993 15.7144 9.86417 16.0009 9.86417C16.2874 9.86417 16.5194 10.0993 16.5194 10.3895V12.4905C16.5194 12.7807 16.2874 13.0157 16.0009 13.0157C15.7144 13.0157 15.4824 12.7807 15.4824 12.4905ZM18.0749 14.0663C17.7884 14.0663 17.5564 14.3013 17.5564 14.5915V16.1674C17.5564 16.4575 17.7884 16.6926 18.0749 16.6926C18.3614 16.6926 18.5935 16.4575 18.5935 16.1674V14.5915C18.5935 14.3013 18.3614 14.0663 18.0749 14.0663ZM16.0009 14.5915C17.1442 14.5915 18.0749 13.6487 18.0749 12.4905V10.3895C18.0749 9.23128 17.1442 8.28842 16.0009 8.28842C14.8576 8.28842 13.9268 9.23128 13.9268 10.3895V12.4905C13.9268 12.7807 14.1588 13.0157 14.4453 13.0157C14.7318 13.0157 14.9638 12.7807 14.9638 12.4905V10.3895C14.9638 9.81039 15.4292 9.33892 16.0009 9.33892C16.5725 9.33892 17.0379 9.81039 17.0379 10.3895V12.4905C17.0379 13.0696 16.5725 13.5411 16.0009 13.5411C15.7144 13.5411 15.4824 13.7761 15.4824 14.0663C15.4824 14.3565 15.7144 14.5915 16.0009 14.5915ZM8.89193 20.5219C8.84528 20.5744 8.80898 20.6269 8.78306 20.6952C8.75713 20.7582 8.74157 20.8265 8.74157 20.8948C8.74157 21.0366 8.79861 21.1679 8.89193 21.2677L8.96972 21.3307C9.00083 21.3518 9.03194 21.3675 9.06305 21.378C9.09416 21.3938 9.12528 21.4043 9.15639 21.4096C9.19268 21.4148 9.22898 21.4201 9.26009 21.4201C9.29639 21.4201 9.32749 21.4148 9.3638 21.4096C9.39491 21.4043 9.42602 21.3938 9.45714 21.378C9.48825 21.3675 9.51936 21.3518 9.55047 21.3307L9.62825 21.2677C9.72158 21.1679 9.77865 21.0314 9.77865 20.8948C9.77865 20.7582 9.72158 20.6217 9.62825 20.5219C9.43642 20.3275 9.08382 20.3275 8.89193 20.5219ZM19.6303 15.117C19.3439 15.117 19.1118 15.352 19.1118 15.6422V16.1675C19.1118 16.4577 19.3439 16.6928 19.6303 16.6928C19.9168 16.6928 20.1489 16.4577 20.1489 16.1675V15.6422C20.1489 15.352 19.9168 15.117 19.6303 15.117ZM5.95173 20.4116C5.88433 20.4379 5.83247 20.4747 5.78062 20.5219C5.73395 20.5744 5.69766 20.6322 5.67173 20.6952C5.64581 20.7583 5.63025 20.8266 5.63025 20.8948C5.63025 20.9631 5.64581 21.0314 5.67173 21.0944C5.69766 21.1575 5.73395 21.2153 5.78062 21.2677C5.83248 21.315 5.88433 21.3518 5.95173 21.378C6.01395 21.4043 6.08136 21.4201 6.14877 21.4201C6.28358 21.4201 6.4184 21.3623 6.51692 21.2677C6.61025 21.168 6.66729 21.0314 6.66729 20.8948C6.66729 20.7582 6.61025 20.6217 6.51692 20.5219C6.37174 20.3748 6.14357 20.3328 5.95173 20.4116ZM16.0005 16.6929C16.287 16.6929 16.5191 16.4579 16.5191 16.1676C16.5191 15.8774 16.287 15.6424 16.0005 15.6424C14.2855 15.6424 12.8894 14.2282 12.8894 12.4908V10.3898C12.8894 8.65249 14.2855 7.23824 16.0005 7.23824C17.7155 7.23824 19.1116 8.65249 19.1116 10.3898V13.5413C19.1116 13.8315 19.3437 14.0667 19.6302 14.0667C19.9167 14.0667 20.1487 13.8315 20.1487 13.5413V10.3898C20.1487 8.07341 18.2872 6.18771 16.0005 6.18771C13.7138 6.18771 11.8524 8.07341 11.8524 10.3898V12.4908C11.8524 14.8072 13.7138 16.6929 16.0005 16.6929ZM8.07226 20.5222C8.0256 20.4749 7.96338 20.4381 7.90115 20.4119C7.80782 20.3699 7.70412 20.3594 7.60041 20.3803C7.5693 20.3856 7.53819 20.3962 7.50708 20.4119C7.47597 20.4224 7.44486 20.4381 7.41375 20.4592C7.38782 20.4749 7.3619 20.5011 7.33597 20.5222C7.2893 20.5747 7.253 20.6273 7.22708 20.6955C7.19597 20.7586 7.1856 20.8268 7.1856 20.8951C7.1856 20.9319 7.19079 20.9634 7.19597 21.0002C7.20115 21.0317 7.21153 21.0632 7.22708 21.0947C7.23745 21.1262 7.25301 21.1578 7.27375 21.1892C7.2893 21.2155 7.31522 21.2418 7.33597 21.2681L7.41375 21.3311C7.44486 21.3521 7.47597 21.3679 7.50708 21.3784C7.53819 21.3941 7.5693 21.4046 7.60041 21.4099C7.63671 21.4151 7.67301 21.4203 7.70412 21.4203C7.77153 21.4203 7.83893 21.4046 7.90115 21.3784C7.93226 21.3679 7.96337 21.3521 7.9893 21.3311C8.02041 21.3101 8.04634 21.2891 8.07226 21.2681L8.13449 21.1892C8.15522 21.1578 8.17079 21.1262 8.18115 21.0947C8.19671 21.0632 8.20708 21.0317 8.21226 21.0002C8.21745 20.9634 8.22264 20.9319 8.22264 20.8951C8.22264 20.8268 8.20708 20.7586 8.18115 20.6955C8.15522 20.6273 8.11893 20.5747 8.07226 20.5222ZM31.5561 18.7941C31.5561 21.4007 29.4626 23.5212 26.8896 23.5212H5.11181C2.53866 23.5212 0.445312 21.4005 0.445312 18.7941C0.445312 18.5039 0.67735 18.2689 0.963831 18.2689H2.00087V3.03646C2.00087 1.58805 3.16364 0.410156 4.59346 0.410156H27.4082C28.8381 0.410156 30.0009 1.58805 30.0009 3.03646V18.2689H31.0379C31.3244 18.2689 31.5561 18.5039 31.5561 18.7941ZM3.03741 18.2689H4.07444V3.03646C4.07444 2.74625 4.30649 2.5112 4.59297 2.5112H27.4078C27.6943 2.5112 27.9263 2.74625 27.9263 3.03646V18.2689H28.9634V3.03646C28.9634 2.16716 28.2659 1.46067 27.4078 1.46067H4.59297C3.73482 1.46067 3.03741 2.16716 3.03741 3.03646V18.2689ZM5.11148 3.56154V18.2689H10.7788C11.3 18.2689 11.7834 18.5315 12.0725 18.97L12.4938 19.6108C12.5911 19.7566 12.7518 19.8446 12.9255 19.8446H19.075C19.2488 19.8446 19.4107 19.7566 19.5067 19.6108L19.928 18.97C20.217 18.5315 20.7006 18.2689 21.2217 18.2689H26.889V3.56154H5.11148ZM30.4812 19.3194H21.2219C21.0482 19.3194 20.8862 19.4074 20.7902 19.5531L20.369 20.1939C20.0799 20.6325 19.5963 20.8951 19.0753 20.8951H12.9257C12.4046 20.8951 11.921 20.6324 11.632 20.1939L11.2107 19.5531C11.1135 19.4074 10.9528 19.3194 10.7791 19.3194H1.51971C1.7712 21.0987 3.28657 22.4709 5.11168 22.4709H26.8895C28.7146 22.4709 30.2297 21.0987 30.4812 19.3194Z" fill="black"/>
</g>
<defs>
<clipPath id="clip0_1_62">
<rect width="31.1111" height="24" fill="white" transform="translate(0.445312)"/>
</clipPath>
</defs>
</svg>
