<svg width="48" height="48" viewBox="0 0 48 48" fill="none" xmlns="http://www.w3.org/2000/svg">
<rect width="48" height="48" rx="12" fill="#F1F3F4"/>
<g clip-path="url(#clip0_1_55)">
<path d="M10.4844 16.8831V14.3688C10.4844 12.4615 12.0357 10.9114 13.9418 10.9114H16.4561C16.9772 10.9114 17.3992 11.3334 17.3992 11.8544C17.3992 12.3754 16.9772 12.7974 16.4561 12.7974H13.9418C13.0754 12.7974 12.3704 13.5023 12.3704 14.3688V16.8831C12.3704 17.4042 11.9484 17.8261 11.4274 17.8261C10.9064 17.8261 10.4844 17.4042 10.4844 16.8831ZM34.0603 10.9102H31.5459C31.0249 10.9102 30.6029 11.3321 30.6029 11.8532C30.6029 12.3742 31.0249 12.7962 31.5459 12.7962H34.0603C34.9267 12.7962 35.6316 13.5011 35.6316 14.3676V16.8819C35.6316 17.4029 36.0536 17.8249 36.5747 17.8249C37.0957 17.8249 37.5177 17.4029 37.5177 16.8819V14.3676C37.5177 12.4603 35.9664 10.9102 34.0603 10.9102ZM36.5758 31.0286C36.0547 31.0286 35.6328 31.4507 35.6328 31.9717V34.4861C35.6328 35.3524 34.9279 36.0573 34.0614 36.0573H31.5471C31.026 36.0573 30.604 36.4794 30.604 37.0004C30.604 37.5214 31.026 37.9435 31.5471 37.9435H34.0614C35.9687 37.9435 37.5189 36.3922 37.5189 34.4861V31.9717C37.5189 31.4507 37.0968 31.0286 36.5758 31.0286ZM16.4573 36.0586H13.9429C13.0765 36.0586 12.3716 35.3537 12.3716 34.4872V31.9729C12.3716 31.4518 11.9496 31.0299 11.4286 31.0299C10.9075 31.0299 10.4856 31.4518 10.4856 31.9729V34.4872C10.4856 36.3945 12.0368 37.9446 13.9429 37.9446H16.4573C16.9783 37.9446 17.4003 37.5226 17.4003 37.0016C17.4003 36.4805 16.9783 36.0586 16.4573 36.0586ZM24.9106 29.7072C25.7498 26.6671 26.2402 26.1756 29.2814 25.3363C29.6904 25.2232 29.9733 24.8518 29.9733 24.4275C29.9733 24.0043 29.6904 23.6318 29.2814 23.5186C26.2402 22.6782 25.7498 22.1878 24.9106 19.1478C24.7974 18.7387 24.4261 18.4547 24.0017 18.4547C23.5774 18.4547 23.2049 18.7387 23.0929 19.1478C22.2535 22.1879 21.7632 22.6794 18.722 23.5186C18.3129 23.6318 18.03 24.0031 18.03 24.4275C18.03 24.8507 18.3129 25.2232 18.722 25.3363C21.7633 26.1768 22.2536 26.6672 23.0929 29.7072C23.206 30.1162 23.5774 30.4004 24.0017 30.4004C24.4261 30.4004 24.7986 30.1162 24.9106 29.7072ZM24.9447 34.1242V35.7439C24.9447 36.2649 24.5227 36.6869 24.0017 36.6869C23.4806 36.6869 23.0587 36.2649 23.0587 35.7439V34.1242C18.4367 33.6786 14.7506 29.9926 14.3049 25.3704H12.6852C12.1642 25.3704 11.7422 24.9485 11.7422 24.4274C11.7422 23.9064 12.1642 23.4844 12.6852 23.4844H14.3049C14.7505 18.8624 18.4364 15.1763 23.0587 14.7306V13.1109C23.0587 12.5899 23.4806 12.1679 24.0017 12.1679C24.5227 12.1679 24.9447 12.5899 24.9447 13.1109V14.7306C29.5667 15.1762 33.2528 18.8621 33.6985 23.4844H35.3182C35.8392 23.4844 36.2612 23.9064 36.2612 24.4274C36.2612 24.9485 35.8392 25.3704 35.3182 25.3704H33.6985C33.2529 29.9923 29.567 33.6785 24.9447 34.1242ZM24.0017 32.2865C28.3349 32.2865 31.8607 28.7606 31.8607 24.4275C31.8607 20.0943 28.3349 16.5684 24.0017 16.5684C19.6685 16.5684 16.1426 20.0943 16.1426 24.4275C16.1426 28.7606 19.6685 32.2865 24.0017 32.2865Z" fill="black"/>
</g>
<defs>
<clipPath id="clip0_1_55">
<rect width="27.0345" height="28" fill="white" transform="translate(10.4844 10)"/>
</clipPath>
</defs>
</svg>
