<svg width="62" height="55" viewBox="0 0 62 55" fill="none" xmlns="http://www.w3.org/2000/svg">
<path d="M58.6392 0H2.86839C2.10799 0.000731483 1.37893 0.303076 0.841183 0.840695C0.303435 1.37831 0.00091469 2.1073 0 2.8677V51.2896C0.000914349 52.0501 0.303412 52.7791 0.841141 53.3169C1.37887 53.8546 2.10792 54.1571 2.86839 54.158H58.633C59.3932 54.1567 60.1219 53.8541 60.6594 53.3164C61.1968 52.7787 61.4991 52.0498 61.5 51.2896V2.8677C61.5 2.10833 61.1988 1.37997 60.6625 0.842368C60.1262 0.304769 59.3986 0.00182979 58.6392 0ZM59.427 51.2896C59.4268 51.5005 59.3429 51.7027 59.1938 51.8518C59.0447 52.0009 58.8425 52.0848 58.6316 52.085H2.86839C2.6575 52.0848 2.45531 52.0009 2.30619 51.8518C2.15707 51.7027 2.07322 51.5005 2.07303 51.2896V8.01504H45.1825C45.4574 8.01504 45.721 7.90584 45.9154 7.71145C46.1098 7.51707 46.219 7.25342 46.219 6.97852C46.219 6.70362 46.1098 6.43998 45.9154 6.24559C45.721 6.05121 45.4574 5.94201 45.1825 5.94201H2.07303V2.8677C2.07322 2.65688 2.15709 2.45475 2.30623 2.30574C2.45537 2.15674 2.65757 2.07303 2.86839 2.07303H58.6392C58.7435 2.07228 58.8468 2.09238 58.9432 2.13213C59.0395 2.17189 59.127 2.23051 59.2004 2.30454C59.2738 2.37858 59.3316 2.46653 59.3705 2.56324C59.4094 2.65995 59.4286 2.76347 59.427 2.8677V51.2896Z" fill="black"/>
<path d="M48.5912 8.01835H49.399C49.6739 8.01835 49.9375 7.90914 50.1319 7.71476C50.3263 7.52037 50.4355 7.25673 50.4355 6.98183C50.4355 6.70693 50.3263 6.44329 50.1319 6.2489C49.9375 6.05452 49.6739 5.94531 49.399 5.94531H48.5912C48.3163 5.94531 48.0527 6.05452 47.8583 6.2489C47.6639 6.44329 47.5547 6.70693 47.5547 6.98183C47.5547 7.25673 47.6639 7.52037 47.8583 7.71476C48.0527 7.90914 48.3163 8.01835 48.5912 8.01835Z" fill="black"/>
<path d="M53.3904 5.94531H52.5853C52.3104 5.94531 52.0468 6.05452 51.8524 6.2489C51.658 6.44329 51.5488 6.70693 51.5488 6.98183C51.5488 7.25673 51.658 7.52037 51.8524 7.71476C52.0468 7.90914 52.3104 8.01835 52.5853 8.01835H53.3924C53.6673 8.01835 53.931 7.90914 54.1254 7.71476C54.3198 7.52037 54.429 7.25673 54.429 6.98183C54.429 6.70693 54.3198 6.44329 54.1254 6.2489C53.931 6.05452 53.6673 5.94531 53.3924 5.94531H53.3904Z" fill="black"/>
<path d="M57.3827 5.94531H56.5756C56.3007 5.94531 56.037 6.05452 55.8427 6.2489C55.6483 6.44329 55.5391 6.70693 55.5391 6.98183C55.5391 7.25673 55.6483 7.52037 55.8427 7.71476C56.037 7.90914 56.3007 8.01835 56.5756 8.01835H57.3827C57.6576 8.01835 57.9212 7.90914 58.1156 7.71476C58.31 7.52037 58.4192 7.25673 58.4192 6.98183C58.4192 6.70693 58.31 6.44329 58.1156 6.2489C57.9212 6.05452 57.6576 5.94531 57.3827 5.94531Z" fill="black"/>
<path d="M14.9134 23.1085C15.9362 23.109 16.9369 22.8109 17.7928 22.251C18.0214 22.1 18.1809 21.8647 18.2365 21.5964C18.2921 21.3282 18.2392 21.0489 18.0895 20.8195C17.9397 20.5901 17.7053 20.4293 17.4373 20.3723C17.1694 20.3153 16.8897 20.3666 16.6596 20.5152C16.2476 20.7867 15.7779 20.9581 15.2879 21.0158C14.7979 21.0736 14.3012 21.016 13.8374 20.8477C13.3736 20.6794 12.9555 20.405 12.6166 20.0465C12.2776 19.688 12.0272 19.2552 11.8852 18.7827C11.7432 18.3102 11.7135 17.811 11.7987 17.3251C11.8838 16.8391 12.0813 16.3797 12.3755 15.9836C12.6697 15.5875 13.0523 15.2656 13.493 15.0437C13.9336 14.8217 14.42 14.7058 14.9134 14.7052C15.4818 14.7038 16.0399 14.8566 16.5283 15.1474C16.645 15.2191 16.7748 15.2669 16.9101 15.2881C17.0455 15.3093 17.1836 15.3034 17.3167 15.2709C17.4498 15.2384 17.5751 15.1798 17.6853 15.0985C17.7956 15.0173 17.8887 14.915 17.9592 14.7975C18.0297 14.6801 18.0762 14.5498 18.0961 14.4143C18.1159 14.2788 18.1087 14.1406 18.0749 14.0079C18.041 13.8752 17.9812 13.7505 17.8989 13.641C17.8165 13.5315 17.7133 13.4395 17.5952 13.3701C16.9024 12.9576 16.1237 12.7107 15.3198 12.6484C14.5159 12.5862 13.7085 12.7104 12.9605 13.0114C12.2125 13.3123 11.544 13.7819 11.0072 14.3836C10.4704 14.9852 10.0798 15.7027 9.86572 16.48C9.65165 17.2574 9.61993 18.0737 9.77304 18.8653C9.92614 19.6569 10.2599 20.4025 10.7484 21.044C11.2369 21.6855 11.8669 22.2055 12.5893 22.5636C13.3117 22.9217 14.1071 23.1082 14.9134 23.1085Z" fill="black"/>
<path d="M50.7883 16.8281H22.8881C22.6132 16.8281 22.3495 16.9373 22.1552 17.1317C21.9608 17.3261 21.8516 17.5897 21.8516 17.8646C21.8516 18.1395 21.9608 18.4032 22.1552 18.5976C22.3495 18.792 22.6132 18.9012 22.8881 18.9012H50.7883C51.0633 18.9012 51.3269 18.792 51.5213 18.5976C51.7157 18.4032 51.8249 18.1395 51.8249 17.8646C51.8249 17.5897 51.7157 17.3261 51.5213 17.1317C51.3269 16.9373 51.0633 16.8281 50.7883 16.8281Z" fill="black"/>
<path d="M18.8951 14.8208L16.4074 17.305L15.6473 16.5449C15.5517 16.4459 15.4373 16.3669 15.3109 16.3126C15.1844 16.2583 15.0484 16.2297 14.9108 16.2285C14.7731 16.2273 14.6366 16.2535 14.5093 16.3057C14.3819 16.3578 14.2661 16.4347 14.1688 16.5321C14.0715 16.6294 13.9945 16.7451 13.9424 16.8725C13.8903 16.9999 13.8641 17.1364 13.8653 17.274C13.8665 17.4116 13.8951 17.5476 13.9494 17.6741C14.0037 17.8005 14.0827 17.9149 14.1817 18.0105L15.6763 19.5052C15.8707 19.6995 16.1343 19.8087 16.4091 19.8087C16.684 19.8087 16.9476 19.6995 17.142 19.5052L20.36 16.2878C20.5488 16.0924 20.6533 15.8305 20.6509 15.5588C20.6486 15.287 20.5396 15.027 20.3474 14.8348C20.1552 14.6427 19.8952 14.5337 19.6235 14.5313C19.3517 14.5289 19.0899 14.6334 18.8944 14.8222L18.8951 14.8208Z" fill="black"/>
<path d="M14.913 34.8898C15.9358 34.8902 16.9365 34.5922 17.7925 34.0322C17.9072 33.9582 18.0062 33.8622 18.0838 33.7497C18.1613 33.6373 18.2159 33.5106 18.2443 33.3771C18.2727 33.2435 18.2745 33.1056 18.2494 32.9713C18.2244 32.837 18.1731 32.709 18.0984 32.5947C18.0237 32.4803 17.9272 32.3818 17.8143 32.3049C17.7015 32.2279 17.5746 32.1741 17.4408 32.1464C17.3071 32.1186 17.1692 32.1176 17.035 32.1434C16.9009 32.1691 16.7732 32.2211 16.6592 32.2964C16.2472 32.5681 15.7773 32.7398 15.2871 32.7977C14.7969 32.8555 14.3 32.798 13.836 32.6297C13.372 32.4614 12.9537 32.187 12.6146 31.8284C12.2755 31.4697 12.0249 31.0367 11.8829 30.564C11.7408 30.0913 11.7112 29.592 11.7964 29.1058C11.8817 28.6196 12.0794 28.1601 12.3737 27.7639C12.6681 27.3677 13.051 27.0458 13.4919 26.8239C13.9328 26.6019 14.4194 26.4861 14.913 26.4857C15.4815 26.484 16.0397 26.6369 16.5279 26.928C16.7642 27.0694 17.0469 27.1113 17.314 27.0443C17.5811 26.9773 17.8106 26.8069 17.9521 26.5707C18.0936 26.3345 18.1354 26.0517 18.0684 25.7846C18.0014 25.5175 17.8311 25.288 17.5948 25.1465C16.9019 24.7357 16.1236 24.4902 15.3204 24.4291C14.5171 24.3681 13.7106 24.4931 12.9636 24.7945C12.2166 25.0959 11.5491 25.5656 11.0131 26.167C10.4772 26.7683 10.0871 27.4852 9.87336 28.2619C9.65958 29.0386 9.62782 29.8541 9.78056 30.645C9.93329 31.436 10.2664 32.181 10.754 32.8223C11.2416 33.4635 11.8705 33.9836 12.5918 34.3422C13.3132 34.7008 14.1075 34.8882 14.913 34.8898Z" fill="black"/>
<path d="M50.7883 28.6094H22.8881C22.6132 28.6094 22.3495 28.7186 22.1552 28.913C21.9608 29.1073 21.8516 29.371 21.8516 29.6459C21.8516 29.9208 21.9608 30.1844 22.1552 30.3788C22.3495 30.5732 22.6132 30.6824 22.8881 30.6824H50.7883C51.0633 30.6824 51.3269 30.5732 51.5213 30.3788C51.7157 30.1844 51.8249 29.9208 51.8249 29.6459C51.8249 29.371 51.7157 29.1073 51.5213 28.913C51.3269 28.7186 51.0633 28.6094 50.7883 28.6094Z" fill="black"/>
<path d="M18.895 26.5993L16.4073 29.087L15.6472 28.3268C15.4517 28.138 15.1899 28.0336 14.9181 28.0359C14.6464 28.0383 14.3864 28.1473 14.1942 28.3395C14.002 28.5316 13.893 28.7916 13.8907 29.0634C13.8883 29.3352 13.9928 29.597 14.1816 29.7925L15.6762 31.2871C15.8706 31.4815 16.1342 31.5906 16.4091 31.5906C16.6839 31.5906 16.9475 31.4815 17.1419 31.2871L20.3599 28.0691C20.5487 27.8736 20.6532 27.6118 20.6508 27.34C20.6485 27.0682 20.5395 26.8083 20.3473 26.6161C20.1551 26.4239 19.8951 26.3149 19.6234 26.3125C19.3516 26.3102 19.0898 26.4147 18.8943 26.6035L18.895 26.5993Z" fill="black"/>
<path d="M16.6592 44.0672C16.2472 44.3387 15.7775 44.5101 15.2875 44.5679C14.7975 44.6256 14.3008 44.568 13.837 44.3997C13.3732 44.2314 12.9552 43.9571 12.6162 43.5985C12.2773 43.24 12.0268 42.8072 11.8848 42.3347C11.7428 41.8622 11.7132 41.3631 11.7983 40.8771C11.8834 40.3911 12.081 39.9317 12.3751 39.5356C12.6693 39.1395 13.052 38.8177 13.4926 38.5957C13.9332 38.3737 14.4196 38.2578 14.913 38.2572C15.4815 38.2555 16.0397 38.4084 16.5279 38.6994C16.6447 38.7711 16.7745 38.8189 16.9098 38.8401C17.0451 38.8613 17.1833 38.8555 17.3164 38.8229C17.4494 38.7904 17.5747 38.7318 17.685 38.6506C17.7953 38.5693 17.8884 38.467 17.9589 38.3496C18.0294 38.2321 18.0759 38.1019 18.0957 37.9663C18.1156 37.8308 18.1084 37.6927 18.0745 37.5599C18.0407 37.4272 17.9809 37.3025 17.8985 37.193C17.8162 37.0836 17.713 36.9915 17.5948 36.9222C16.7913 36.4448 15.8747 36.1911 14.9401 36.1875C14.0055 36.184 13.0869 36.4306 12.2798 36.9019C11.4727 37.3731 10.8064 38.0518 10.3501 38.8675C9.89377 39.6832 9.6641 40.6061 9.68489 41.5405C9.70569 42.4749 9.97619 43.3867 10.4683 44.1813C10.9605 44.9758 11.6563 45.6242 12.4836 46.0591C13.3109 46.494 14.2395 46.6995 15.173 46.6544C16.1066 46.6092 17.011 46.315 17.7925 45.8023C17.9072 45.7283 18.0062 45.6323 18.0838 45.5198C18.1613 45.4074 18.2159 45.2808 18.2443 45.1472C18.2727 45.0136 18.2745 44.8757 18.2494 44.7414C18.2244 44.6071 18.1731 44.4791 18.0984 44.3648C18.0237 44.2504 17.9272 44.1519 17.8143 44.075C17.7015 43.9981 17.5746 43.9442 17.4408 43.9165C17.3071 43.8887 17.1692 43.8877 17.035 43.9135C16.9009 43.9392 16.7732 43.9919 16.6592 44.0672Z" fill="black"/>
<path d="M50.7883 40.3828H22.8881C22.6132 40.3828 22.3495 40.492 22.1552 40.6864C21.9608 40.8808 21.8516 41.1444 21.8516 41.4193C21.8516 41.6942 21.9608 41.9579 22.1552 42.1523C22.3495 42.3466 22.6132 42.4558 22.8881 42.4558H50.7883C51.0633 42.4558 51.3269 42.3466 51.5213 42.1523C51.7157 41.9579 51.8249 41.6942 51.8249 41.4193C51.8249 41.1444 51.7157 40.8808 51.5213 40.6864C51.3269 40.492 51.0633 40.3828 50.7883 40.3828Z" fill="black"/>
<path d="M18.895 38.3774L16.4073 40.8651L15.6472 40.1049C15.4517 39.9161 15.1899 39.8117 14.9181 39.814C14.6464 39.8164 14.3864 39.9254 14.1942 40.1176C14.002 40.3097 13.893 40.5697 13.8907 40.8415C13.8883 41.1133 13.9928 41.3751 14.1816 41.5706L15.6762 43.0652C15.8706 43.2596 16.1342 43.3687 16.4091 43.3687C16.6839 43.3687 16.9475 43.2596 17.1419 43.0652L20.3599 39.8479C20.4562 39.7517 20.5326 39.6374 20.5847 39.5116C20.6368 39.3859 20.6637 39.2511 20.6637 39.115C20.6637 38.9788 20.637 38.844 20.5849 38.7183C20.5328 38.5925 20.4565 38.4782 20.3603 38.3819C20.264 38.2856 20.1498 38.2092 20.024 38.1571C19.8983 38.105 19.7635 38.0782 19.6273 38.0781C19.4912 38.0781 19.3564 38.1049 19.2306 38.1569C19.1049 38.209 18.9906 38.2853 18.8943 38.3816L18.895 38.3774Z" fill="black"/>
</svg>
