<svg width="67" height="58" viewBox="0 0 67 58" fill="none" xmlns="http://www.w3.org/2000/svg">
<path fill-rule="evenodd" clip-rule="evenodd" d="M39.6781 39.4401C43.5699 40.5775 46.2466 44.0898 46.2608 48.0842V56.2352C46.2608 56.7091 45.8727 57.0938 45.3912 57.0938H21.6066C21.1279 57.0938 20.7371 56.7091 20.7371 56.2352V48.0785C20.7569 44.0867 23.4307 40.5769 27.3197 39.4401C25.4447 37.107 25.0906 33.9263 26.4077 31.2499C27.7248 28.5738 30.478 26.8734 33.5002 26.8734C36.5197 26.8734 39.2756 28.5738 40.5899 31.2499C41.907 33.926 41.5532 37.1066 39.6781 39.4401ZM38.4006 41.7677V41.765C35.4407 43.7386 31.5573 43.7386 28.597 41.765C25.5493 42.3866 23.3597 45.0236 23.3513 48.0844V54.5237H26.3311V49.0211C26.3311 48.55 26.7219 48.1653 27.2006 48.1653C27.6821 48.1653 28.0702 48.55 28.0702 49.0211V54.5181H38.9274L38.9302 49.0211C38.9302 48.55 39.3182 48.1653 39.7998 48.1653C40.2813 48.1653 40.6693 48.55 40.6693 49.0211V54.5181H43.6548V48.0789C43.6434 45.0153 41.4539 42.3783 38.4033 41.7594L38.4006 41.7677ZM20.9238 0.09375H46.0789C47.6623 0.09375 48.8859 1.43735 48.8859 2.9984V10.9317H64.6405C65.9689 10.9317 67 12.0551 67 13.3569V28.6134C67 29.9179 65.9689 31.0385 64.6405 31.0385H45.351C44.0254 31.0385 42.9915 29.9179 42.9915 28.6134V25.8035H24.005V28.6189C24.005 29.9235 22.9711 31.0441 21.6512 31.0441L2.35946 31.0469C1.0367 31.0469 0 29.9263 0 28.6217V13.3624C0 12.0578 1.0367 10.9372 2.35946 10.9372L18.1112 10.9344V2.99826C18.1112 1.43721 19.3405 0.09375 20.9238 0.09375ZM48.8887 12.6549V22.9018C48.8887 24.4712 47.6623 25.8092 46.0817 25.8092H44.7335V28.6246C44.7335 28.9926 44.994 29.3383 45.3538 29.3383H64.6433C65.0059 29.3383 65.2608 28.9898 65.2608 28.6246V13.3625C65.2608 12.9917 65.0059 12.6488 64.6433 12.6488L48.8887 12.6549ZM22.266 25.8041H20.9234C19.34 25.8041 18.1108 24.4605 18.1108 22.8966V21.015L16.8163 19.8219C16.754 19.7606 16.5274 19.7885 16.516 19.7968L8.80296 28.1455C8.65566 28.335 8.4319 28.4577 8.1883 28.4772C7.94754 28.4995 7.70678 28.4215 7.5255 28.2598C7.34706 28.0981 7.24226 27.8695 7.24226 27.6298C7.23943 27.39 7.3414 27.1587 7.51984 26.997L8.55654 25.8736L5.4323 22.9634C5.336 22.9327 5.23402 22.9383 5.14055 22.9801L1.73874 26.1663V28.6222C1.73874 28.9901 1.99366 29.3358 2.35622 29.3358H21.648C22.0077 29.3358 22.2655 28.9873 22.2655 28.6222L22.266 25.8041ZM18.1108 18.6679V12.6467H2.35903C1.99647 12.6467 1.74154 12.9896 1.74154 13.3603V23.8084L3.95373 21.7428C4.727 21.0599 5.894 21.0599 6.66727 21.7428L9.72922 24.6085L15.2582 18.6263C15.9182 17.9044 17.2608 17.8904 18.0001 18.5706L18.1108 18.6679ZM53.7858 18.0072L60.4167 15.8384V15.1193L53.7858 17.288V18.0072ZM60.4167 17.6392L53.7858 19.808V26.5317C53.7518 28.6168 50.6785 29.6426 48.8035 28.2711C46.8094 26.8132 48.0783 24.0981 50.8117 24.0981L50.8088 24.1009C51.2309 24.1009 51.6501 24.1733 52.0466 24.3183V16.6776C52.0438 16.2762 52.3242 15.9277 52.7208 15.8385L60.932 13.1513V13.1541C61.0425 13.1067 61.1614 13.0816 61.2832 13.0788C61.7619 13.0788 62.1528 13.4635 62.1528 13.9374V23.7967C62.116 25.8819 59.0398 26.9077 57.1676 25.5418C55.1792 24.0811 56.4425 21.3659 59.1786 21.3659H59.1758C59.5978 21.3659 60.0171 21.4384 60.4136 21.5834L60.4167 17.6392ZM8.95868 14.3193C11.3068 14.3193 12.4936 17.1319 10.8281 18.7655C9.16259 20.399 6.31026 19.2394 6.31026 16.9257C6.3131 15.4873 7.49714 14.3221 8.95868 14.3193ZM44.5177 55.3774V48.0792C44.5121 44.4637 41.8241 41.3974 38.1899 40.8595C35.4027 42.8917 31.593 42.8917 28.8062 40.8595C25.1749 41.4003 22.4897 44.4667 22.4784 48.0792V55.3774H44.5177ZM37.8359 30.3586C36.0826 28.6331 33.4427 28.1174 31.1512 29.0513C28.8569 29.9851 27.3613 32.1873 27.3613 34.6292C27.3613 37.0711 28.8569 39.2733 31.1512 40.2099C33.4427 41.1438 36.0826 40.6281 37.8359 38.8998C38.9887 37.7681 39.6346 36.2321 39.6346 34.6292C39.6346 33.0291 38.9888 31.4904 37.8359 30.3586ZM28.4319 19.0299V6.86479C28.4319 6.54701 28.6075 6.2571 28.8907 6.10657C29.1768 5.95883 29.5195 5.97556 29.7886 6.15117L40.4413 12.2086H40.4385C40.7048 12.3619 40.869 12.6435 40.869 12.9473C40.869 13.2512 40.7048 13.5299 40.4385 13.6861L29.7343 19.7713C29.4652 19.9246 29.1338 19.9246 28.8648 19.7713C28.5957 19.6208 28.4286 19.3365 28.4286 19.0326L28.4319 19.0299Z" fill="black"/>
</svg>
