<svg width="37" height="48" viewBox="0 0 37 48" fill="none" xmlns="http://www.w3.org/2000/svg">
<path d="M18.5869 29.5596C18.5913 29.5594 18.595 29.5594 18.5967 29.5596L18.6064 29.5645C18.6108 29.5675 18.6171 29.5729 18.625 29.5811C18.656 29.613 18.7168 29.7007 18.7168 29.8682C18.7168 29.968 18.6923 30.034 18.668 30.0771C18.6423 30.1226 18.6059 30.1607 18.5586 30.1895L18.5 30.2246L18.4414 30.1895C18.3941 30.1606 18.3577 30.1225 18.332 30.0771C18.3077 30.034 18.2832 29.9679 18.2832 29.8682C18.2832 29.7511 18.3272 29.6695 18.375 29.6201C18.4211 29.5728 18.4621 29.5615 18.5 29.5615H18.5439L18.5869 29.5596ZM9.95703 18.4385H9.74121V18.1387L9.95703 18.1377V18.4385Z" fill="black" stroke="black" stroke-width="5.22847"/>
</svg>
