<svg width="49" height="51" viewBox="0 0 49 51" fill="none" xmlns="http://www.w3.org/2000/svg">
<path fill-rule="evenodd" clip-rule="evenodd" d="M9.958 35.2094C10.3442 35.2094 10.6913 35.0527 10.943 34.8029C11.1948 34.5507 11.3488 34.2005 11.3488 33.816C11.3488 33.4316 11.1923 33.0814 10.9406 32.8292C10.6888 32.5769 10.3393 32.4202 9.95557 32.4202C9.57182 32.4202 9.22227 32.5769 8.97054 32.8292C8.71881 33.0814 8.56235 33.4316 8.56235 33.816C8.56235 34.2029 8.71878 34.5507 8.9681 34.8029C9.2223 35.0551 9.57183 35.2094 9.958 35.2094ZM12.7567 43.8857C12.6369 43.9028 12.505 43.915 12.3656 43.9248C12.2483 43.9322 12.1188 43.9371 11.977 43.9371C10.5471 43.9371 9.2565 43.4057 8.32773 42.5486C7.40866 41.7038 6.84162 40.5357 6.84162 39.2501C6.84162 38.8509 6.89295 38.4689 6.99316 38.1089C7.09582 37.7343 7.24981 37.3743 7.44536 37.0388V37.0364L7.45024 37.029L7.45269 37.0241L7.45513 37.0217C7.50402 36.9311 7.52602 36.8331 7.52358 36.7376V36.7156L7.51869 36.6886L7.51624 36.6715V36.6691L7.5138 36.6544C7.48936 36.5099 7.41114 36.3727 7.28404 36.2821L7.27915 36.2772L7.25959 36.265L7.2547 36.2625L7.23759 36.2528H7.23515L7.22782 36.2479L7.22293 36.2454L7.22049 36.243C7.16916 36.216 7.11293 36.1964 7.05917 36.1866C5.92503 35.932 4.93756 35.3295 4.24093 34.5116C3.56389 33.7182 3.16055 32.7191 3.16055 31.6343C3.16055 30.8213 3.38542 30.0573 3.78383 29.3936C4.19935 28.6982 4.80552 28.108 5.53638 27.6819C5.81014 27.5227 5.90302 27.1725 5.74414 26.8983C5.58526 26.624 5.23573 26.5309 4.96198 26.6901C4.06493 27.2142 3.31943 27.9415 2.8037 28.8059C2.77193 28.8598 2.74015 28.9112 2.71082 28.9651C2.29774 28.6002 1.95068 28.1741 1.68913 27.7015C1.3396 27.0722 1.14406 26.3547 1.14406 25.5955C1.14406 24.7702 1.37626 23.994 1.78443 23.323C2.21217 22.6202 2.83303 22.0276 3.58341 21.6064C3.85961 21.4521 3.95738 21.1019 3.80339 20.8252L3.79117 20.8056C3.56141 20.4334 3.38298 20.0317 3.26321 19.613C3.14833 19.2065 3.08478 18.778 3.08478 18.3347C3.08478 16.9438 3.69829 15.6851 4.69065 14.7693C5.69526 13.8436 7.08846 13.2706 8.63082 13.2706C8.84103 13.2706 9.03412 13.2779 9.21011 13.2951C9.39588 13.3122 9.58408 13.3392 9.77229 13.3759C10.0827 13.4347 10.3809 13.229 10.4396 12.918C10.4982 12.607 10.2929 12.3082 9.9825 12.2494C9.76985 12.2078 9.54497 12.176 9.31277 12.1564C9.07324 12.1343 8.84592 12.1221 8.63085 12.1221C8.00757 12.1221 7.40386 12.2005 6.83187 12.3498C6.78543 12.2127 6.74632 12.0731 6.7121 11.9311C6.64611 11.6421 6.61189 11.3385 6.61189 11.025C6.61189 9.81042 7.14963 8.70602 8.01734 7.90766C8.89724 7.09708 10.1194 6.59506 11.4735 6.59506C11.7448 6.59506 12.0088 6.61465 12.263 6.65139C12.3828 6.66853 12.5001 6.69057 12.6125 6.71505C12.6467 7.63089 12.9205 8.49287 13.38 9.2496C13.8836 10.0822 14.6095 10.7801 15.4821 11.2772C15.7559 11.434 16.1054 11.336 16.2618 11.0617C16.4183 10.7875 16.3205 10.4373 16.0468 10.2806C15.3428 9.87896 14.7586 9.31815 14.3578 8.65703C13.9765 8.02524 13.7565 7.29547 13.7565 6.51673C13.7565 5.30212 14.2942 4.19772 15.1619 3.39936C16.0418 2.58878 17.264 2.08676 18.6181 2.08676C19.9698 2.08676 21.1919 2.58877 22.0718 3.39936C22.9395 4.2001 23.4773 5.30212 23.4773 6.51673V6.64163C23.4773 6.66611 23.4748 6.7102 23.47 6.77141V6.8057H23.4675V19.3192H19.1289L17.8213 17.0491C17.7162 16.8655 17.5231 16.7626 17.3251 16.7626L17.3275 16.7479H12.4317C12.3217 16.2778 12.0822 15.8566 11.7522 15.5235L11.7547 15.5211C11.2951 15.0607 10.6596 14.7767 9.95812 14.7767C9.25661 14.7767 8.62112 15.0607 8.16158 15.5211C7.70204 15.9815 7.41853 16.6182 7.41853 17.321C7.41853 18.0238 7.70206 18.6605 8.16158 19.1209C8.62111 19.5813 9.25661 19.8653 9.95812 19.8653C10.6596 19.8653 11.2951 19.5812 11.7547 19.1209C12.0846 18.7903 12.3242 18.3691 12.4341 17.8965H17.0025L18.2833 20.12C18.3737 20.3184 18.5742 20.4555 18.8039 20.4555H23.47V24.9932H17.5989C17.4889 24.523 17.2494 24.1018 16.9194 23.7712V23.7688C16.4599 23.3084 15.8244 23.0243 15.1229 23.0243C14.4214 23.0243 13.7859 23.3084 13.3263 23.7688C12.8668 24.2292 12.5833 24.8659 12.5833 25.5687C12.5833 26.269 12.8668 26.9057 13.3263 27.3661L13.3288 27.3686C13.7883 27.8289 14.4238 28.113 15.1229 28.113C15.8244 28.113 16.4599 27.8289 16.9194 27.3686C17.2494 27.038 17.4889 26.6168 17.5989 26.1442H23.47V30.6818H18.8039C18.5717 30.6818 18.3737 30.819 18.2833 31.0173L17.0025 33.2409H12.4341C12.3266 32.7682 12.0846 32.347 11.7547 32.0165C11.2951 31.5561 10.6596 31.272 9.95812 31.272C9.25662 31.272 8.62112 31.5561 8.16159 32.0165C7.70205 32.4769 7.41853 33.1135 7.41853 33.8164C7.41853 34.5167 7.70206 35.1534 8.16159 35.6138L8.16403 35.6163C8.62356 36.0766 9.25906 36.3607 9.95813 36.3607C10.6572 36.3607 11.2927 36.0766 11.7522 35.6163L11.7547 35.6138C12.0846 35.2832 12.3242 34.862 12.4342 34.3919H17.33V34.3894C17.528 34.3894 17.7186 34.2866 17.8262 34.1029L19.1338 31.8328H23.4724V44.3683C23.4651 45.6245 22.942 46.7632 22.0987 47.5885C21.2457 48.4211 20.0651 48.9377 18.7599 48.9377C17.4547 48.9377 16.2741 48.421 15.4211 47.5885C14.5729 46.7583 14.0474 45.6123 14.0474 44.3462C14.0474 43.4451 14.3114 42.6076 14.7684 41.9023C15.2426 41.1677 15.9246 40.5751 16.7336 40.1979C17.0196 40.0657 17.1467 39.7253 17.0147 39.4364C16.8827 39.1498 16.5429 39.0225 16.2545 39.1547C15.2499 39.6225 14.4018 40.362 13.8103 41.2754C13.3141 42.0444 12.9964 42.9332 12.9206 43.8883C12.8668 43.8785 12.8129 43.8783 12.7567 43.8857ZM12.9425 45.0146C12.9303 45.017 12.918 45.0195 12.9058 45.0195C12.7445 45.0415 12.5905 45.0562 12.4414 45.066C12.2776 45.0758 12.1212 45.0831 11.977 45.0831C10.2514 45.0831 8.68702 44.4367 7.55289 43.3886C6.40411 42.3307 5.69521 40.8663 5.69521 39.2476C5.69521 38.7554 5.76366 38.273 5.89076 37.8077C5.95675 37.5701 6.03741 37.3375 6.13274 37.1122C5.03771 36.7375 4.08447 36.0886 3.37314 35.256C2.52252 34.2594 2.01655 33.0006 2.01655 31.6318C2.01655 31.0882 2.09721 30.5617 2.24631 30.0621C1.60838 29.565 1.07551 28.9504 0.691746 28.2549C0.249335 27.4541 0 26.548 0 25.5906C0 24.5498 0.295758 23.5703 0.811511 22.7206C1.24659 22.0055 1.83809 21.386 2.54447 20.9011C2.39049 20.5877 2.26338 20.2596 2.16806 19.9191C2.02385 19.4098 1.94563 18.8759 1.94563 18.3274C1.94563 16.6034 2.70089 15.0435 3.92307 13.9195C4.45591 13.4298 5.07429 13.0208 5.75871 12.7196C5.69761 12.5433 5.64627 12.3621 5.60473 12.1809C5.51918 11.8013 5.47273 11.4119 5.47273 11.0177C5.47273 9.46752 6.15222 8.06684 7.24969 7.05547C8.33496 6.05632 9.83083 5.43682 11.4807 5.43682C11.8033 5.43682 12.1211 5.46131 12.4339 5.50783C12.5244 5.52008 12.6124 5.53722 12.7028 5.55436C12.9203 4.38871 13.5241 3.34555 14.3918 2.5472C15.477 1.54805 16.9729 0.928546 18.6228 0.928546C19.3389 0.928546 20.0282 1.04609 20.6662 1.25913C20.8666 1.09262 21.0915 0.950581 21.331 0.840385C21.6781 0.678765 22.0643 0.578361 22.47 0.553874C22.712 0.539181 22.976 0.526937 23.2571 0.517142C23.5553 0.504898 23.8217 0.5 24.0441 0.5C24.2666 0.5 24.5305 0.504898 24.8361 0.514693C25.1171 0.524488 25.3787 0.536732 25.6231 0.551425L25.6402 0.553874C26.3564 0.60285 27.0041 0.884463 27.5076 1.33016C28.016 1.78074 28.3729 2.39783 28.5074 3.11293L28.7371 4.35451C28.808 4.73652 28.9742 5.07199 29.2162 5.33892C29.4557 5.6034 29.7735 5.7993 30.1475 5.90705H30.1499C30.9003 6.12009 31.6385 6.37967 32.3571 6.67845C33.0757 6.9772 33.7796 7.32001 34.464 7.70204C34.8038 7.89305 35.1704 7.97876 35.5297 7.96162C35.8866 7.94448 36.2385 7.82448 36.5587 7.60409L37.314 7.08249C37.9299 6.6564 38.6437 6.47764 39.3379 6.53151C40.032 6.58783 40.7091 6.87679 41.2493 7.39349C41.5035 7.63593 41.7528 7.88326 41.9972 8.13793C42.249 8.39751 42.4836 8.65218 42.706 8.902C43.19 9.44808 43.4564 10.1117 43.498 10.7949C43.5395 11.4732 43.3586 12.1663 42.9456 12.7662L42.442 13.4984C42.2221 13.8192 42.1023 14.1743 42.0852 14.5293C42.0681 14.8893 42.1536 15.2542 42.3443 15.597C42.7256 16.2802 43.0653 16.983 43.3635 17.7055C43.6617 18.4278 43.9208 19.1674 44.1335 19.9192C44.241 20.2963 44.4366 20.6146 44.7006 20.8546C44.9645 21.097 45.2994 21.2636 45.6831 21.3346L46.4164 21.4693C47.1424 21.6039 47.7656 21.9737 48.2179 22.4929C48.6676 23.012 48.9438 23.683 48.9756 24.4201C48.9829 24.5841 48.9878 24.7654 48.9927 24.9564C48.9976 25.2061 49 25.3874 49 25.5C49 25.6127 48.9976 25.7939 48.9927 26.0387C48.9878 26.2298 48.9829 26.411 48.9756 26.5799C48.9438 27.3195 48.6676 27.9904 48.2179 28.5096C47.7657 29.0312 47.1424 29.3985 46.4164 29.5332L45.6831 29.6679C45.3018 29.7389 44.967 29.9054 44.7006 30.1454C44.4366 30.3854 44.241 30.7062 44.1335 31.0808C43.9184 31.8351 43.6617 32.5746 43.3635 33.2945C43.0653 34.0145 42.7256 34.7197 42.3443 35.403C42.1536 35.7434 42.0681 36.1107 42.0852 36.4707C42.1023 36.8282 42.2221 37.1808 42.442 37.5016L42.9456 38.2338C43.3586 38.8362 43.542 39.5292 43.498 40.2051C43.4564 40.8858 43.19 41.5519 42.706 42.098C42.4836 42.3478 42.2465 42.6025 41.9972 42.8645C41.7528 43.1192 41.501 43.3665 41.2493 43.609C40.7066 44.1257 40.032 44.4171 39.3379 44.4709C38.6437 44.5273 37.9324 44.3461 37.314 43.92L36.5612 43.4008C36.2385 43.178 35.8841 43.058 35.5273 43.0408H35.5224C35.1655 43.0261 34.8038 43.1118 34.4665 43.3004C33.782 43.6824 33.0806 44.0252 32.3595 44.324C31.6409 44.6228 30.9027 44.8799 30.1524 45.0954C29.7759 45.2031 29.4582 45.3991 29.2186 45.6635C28.9767 45.928 28.8105 46.2635 28.7396 46.6455L28.5098 47.8871C28.3778 48.6021 28.0185 49.2192 27.5101 49.6698C27.0041 50.1204 26.349 50.4021 25.6256 50.4486C25.3811 50.4633 25.1196 50.4755 24.8361 50.4853C24.533 50.4951 24.269 50.5 24.0466 50.5C23.8242 50.5 23.5602 50.4951 23.2547 50.4853C22.9736 50.4755 22.712 50.4633 22.4676 50.4486C22.0668 50.4241 21.6879 50.3237 21.3408 50.1645L21.3359 50.1743C21.1013 50.0666 20.8813 49.927 20.6808 49.7654C20.0795 49.9711 19.4318 50.0813 18.7597 50.0813C17.1465 50.0813 15.6847 49.4397 14.6239 48.4038C13.7123 47.5149 13.0989 46.332 12.9425 45.0146ZM21.908 1.83699C22.2477 2.04268 22.563 2.28022 22.849 2.54469C23.9465 3.55607 24.626 4.95681 24.626 6.50687L24.6211 6.66605C24.6186 6.71747 24.6186 6.75911 24.6162 6.79339V11.8404C28.1579 11.9873 31.3503 13.486 33.6943 15.8344C36.1654 18.3102 37.6931 21.7287 37.6931 25.505C37.6931 29.2812 36.1654 32.6999 33.6943 35.1755C31.3502 37.5239 28.158 39.0226 24.6162 39.1695V44.3439C24.6162 45.9307 23.9587 47.3682 22.893 48.4089C22.5972 48.6979 22.2697 48.9575 21.9153 49.1803C22.1084 49.2562 22.3161 49.3028 22.5361 49.3175C22.8025 49.3346 23.0543 49.3468 23.2865 49.3542C23.4943 49.3615 23.7485 49.364 24.0417 49.364C24.335 49.364 24.5868 49.3615 24.7946 49.3542C25.0292 49.3468 25.281 49.3346 25.5474 49.3175C26.0118 49.2881 26.4273 49.1093 26.7475 48.8252C27.0678 48.5412 27.2951 48.1494 27.3781 47.6914L27.6079 46.4499C27.7179 45.8499 27.9819 45.3209 28.3632 44.9022C28.7469 44.481 29.2456 44.1675 29.8298 44.001C30.5435 43.7978 31.2401 43.5553 31.9123 43.2762C32.6016 42.9897 33.2664 42.6689 33.9019 42.3113C34.4274 42.0175 34.9969 41.8828 35.5591 41.9073H35.5737C36.1433 41.9342 36.7006 42.1203 37.1992 42.4632L37.2017 42.4656L37.9569 42.9872C38.348 43.2566 38.8002 43.3717 39.2402 43.3349C39.6801 43.3007 40.1079 43.1146 40.4525 42.7864C40.6969 42.5538 40.934 42.3162 41.1662 42.0763C41.3887 41.8461 41.6135 41.6012 41.8433 41.3416C42.1512 40.9939 42.3223 40.5726 42.3492 40.1441C42.3761 39.7131 42.2588 39.2723 41.9972 38.8903L41.4937 38.1581C41.1491 37.6561 40.9633 37.0953 40.9364 36.5247C40.9096 35.9566 41.044 35.3836 41.3397 34.8521C41.6942 34.2155 42.0168 33.5494 42.3004 32.8612C42.579 32.1878 42.821 31.4899 43.0263 30.7724C43.1926 30.1871 43.503 29.6876 43.9258 29.3031C44.3462 28.9211 44.8742 28.6566 45.4706 28.5464L46.2039 28.4117C46.6659 28.326 47.0619 28.0934 47.3478 27.7653C47.6338 27.4371 47.8098 27.0086 47.8293 26.5409C47.8367 26.3572 47.844 26.1858 47.8465 26.0242C47.8489 25.9189 47.8489 25.7475 47.8489 25.5075C47.8489 25.2651 47.8465 25.0912 47.8465 24.9859C47.844 24.8267 47.8367 24.6577 47.8293 24.4765V24.4741C47.8098 24.0039 47.6338 23.5778 47.3478 23.2497C47.0643 22.9216 46.6684 22.6889 46.2064 22.6032L45.4731 22.4686C44.8742 22.3584 44.3463 22.0939 43.9283 21.7119C43.5079 21.3274 43.195 20.8278 43.0288 20.2426C42.8259 19.5251 42.5815 18.8272 42.3028 18.1537C42.0168 17.4656 41.6966 16.7995 41.3422 16.1628C41.0464 15.6314 40.912 15.0584 40.9389 14.4903C40.9658 13.9197 41.1515 13.3589 41.4962 12.8569L41.9997 12.1247C42.2612 11.7427 42.3786 11.3019 42.3517 10.8709C42.3248 10.4423 42.1537 10.0236 41.8457 9.67338C41.6159 9.41381 41.3886 9.16893 41.1687 8.93872C40.9365 8.69874 40.6994 8.46365 40.4574 8.23102C40.1128 7.90287 39.685 7.71677 39.245 7.68248C38.8051 7.6482 38.3529 7.7633 37.9618 8.03022L37.2065 8.55182C36.7055 8.8971 36.1457 9.08321 35.5762 9.11014C35.0091 9.13708 34.4372 9.00239 33.9067 8.70609C33.2688 8.35101 32.604 8.02779 31.9171 7.74123C31.2449 7.46207 30.5508 7.21963 29.8346 7.01641C29.2504 6.84989 28.7493 6.53644 28.368 6.11769C27.9867 5.69649 27.7228 5.16756 27.6103 4.56756L27.3781 3.3211C27.2926 2.86562 27.0677 2.47134 26.7475 2.18729C26.4297 1.90323 26.0142 1.72691 25.5547 1.69753H25.5474C25.281 1.68039 25.0317 1.66814 24.797 1.6608C24.5893 1.65345 24.3351 1.651 24.0418 1.651C23.746 1.651 23.4942 1.65345 23.2865 1.6608C23.0543 1.66814 22.805 1.68039 22.5361 1.69753C22.3161 1.70977 22.1035 1.75862 21.908 1.83699ZM24.6162 12.9914V38.0184C27.8401 37.8715 30.7464 36.5026 32.8827 34.3623C35.1461 32.0947 36.5443 28.9627 36.5443 25.5049C36.5443 22.0471 35.1437 18.9149 32.8827 16.6474C30.7489 14.5072 27.8402 13.1383 24.6162 12.9914ZM16.11 24.579C15.8582 24.3267 15.5087 24.17 15.125 24.17C14.7412 24.17 14.3917 24.3267 14.1399 24.579C13.8882 24.8312 13.7318 25.1814 13.7318 25.5658C13.7318 25.9527 13.8882 26.3005 14.1375 26.5527C14.3893 26.8049 14.7388 26.9592 15.1225 26.9592C15.5063 26.9592 15.8558 26.8025 16.1076 26.5502C16.3593 26.298 16.5157 25.9478 16.5157 25.5634C16.5182 25.1814 16.3618 24.8312 16.11 24.579ZM10.9404 16.334C10.6886 16.0818 10.3391 15.925 9.95537 15.925C9.57162 15.925 9.22207 16.0818 8.97034 16.334C8.71861 16.5862 8.56215 16.9364 8.56215 17.3209C8.56215 17.7053 8.71858 18.0555 8.97034 18.3077C9.2221 18.5599 9.57163 18.7167 9.95537 18.7167C10.3391 18.7167 10.6887 18.5599 10.9404 18.3077C11.1921 18.0555 11.3486 17.7053 11.3486 17.3209C11.3486 16.9339 11.1946 16.5862 10.9428 16.334H10.9404Z" fill="black"/>
</svg>
