<svg width="65" height="51" viewBox="0 0 65 51" fill="none" xmlns="http://www.w3.org/2000/svg">
<path d="M63.3132 22.9276L57.4293 20.4313L63.3132 17.935C65.5622 16.9808 65.5622 13.7443 63.3132 12.7901L36.047 1.22218C34.9122 0.740691 33.7061 0.5 32.5 0.5C31.2939 0.5 30.0878 0.740691 28.953 1.22218L1.68675 12.7901C-0.562252 13.7443 -0.562252 16.9808 1.68675 17.935L7.57072 20.4313L1.68675 22.9276C-0.562252 23.8817 -0.562252 27.1183 1.68675 28.0724L7.57072 30.5687L1.68675 33.0651C-0.562252 34.0192 -0.562252 37.2557 1.68675 38.2099L28.953 49.7778C30.0878 50.2593 31.2939 50.5 32.5 50.5C33.7061 50.5 34.9122 50.2593 36.047 49.7778L63.3132 38.2099C65.5622 37.2557 65.5622 34.0192 63.3132 33.0651L57.4293 30.5687L63.3132 28.0724C65.5622 27.1183 65.5622 23.8817 63.3132 22.9276ZM2.27793 16.4973C1.58752 16.2044 1.53386 15.5547 1.53386 15.3625C1.53386 15.1704 1.58752 14.5207 2.27793 14.2278L29.5442 2.65982C30.4855 2.26047 31.4799 2.05799 32.5 2.05799C33.5201 2.05799 34.5146 2.26047 35.4558 2.65982L62.7221 14.2278C63.4125 14.5207 63.4661 15.1704 63.4661 15.3625C63.4661 15.5547 63.4125 16.2044 62.7221 16.4973L35.4558 28.0652C34.5146 28.4646 33.5201 28.667 32.5 28.667C31.4799 28.667 30.4855 28.4646 29.5442 28.0652L2.27793 16.4973ZM62.7221 34.5027C63.4125 34.7956 63.4661 35.4453 63.4661 35.6375C63.4661 35.8296 63.4125 36.4793 62.7221 36.7722L35.4558 48.3401C34.5146 48.7395 33.5201 48.942 32.5 48.942C31.4799 48.942 30.4855 48.7395 29.5442 48.3401L2.27793 36.7722C1.58752 36.4793 1.53386 35.8296 1.53386 35.6375C1.53386 35.4453 1.58752 34.7956 2.27793 34.5027L9.56059 31.413L28.953 39.6404C30.0878 40.1218 31.2939 40.3625 32.5 40.3625C33.7061 40.3625 34.9122 40.1218 36.047 39.6404L55.4394 31.413L62.7221 34.5027ZM62.7221 26.6347L35.4558 38.2027C34.5146 38.602 33.5201 38.8045 32.5 38.8045C31.4799 38.8045 30.4855 38.602 29.5442 38.2027L2.27793 26.6347C1.58752 26.3419 1.53386 25.6921 1.53386 25.5C1.53386 25.3078 1.58752 24.6582 2.27793 24.3652L9.56059 21.2755L28.953 29.5029C30.0878 29.9843 31.2939 30.2251 32.5 30.2251C33.7061 30.2251 34.9122 29.9843 36.047 29.5029L55.4394 21.2755L62.7221 24.3652C63.4125 24.6582 63.4661 25.3078 63.4661 25.5C63.4661 25.6921 63.4125 26.3419 62.7221 26.6347Z" fill="black"/>
</svg>
