<svg width="46" height="47" viewBox="0 0 46 47" fill="none" xmlns="http://www.w3.org/2000/svg">
<path d="M33.3127 16.0425L41.9797 7.37548V9.4575C41.9797 10.5227 42.8997 11.4911 44.0133 11.4911C44.5459 11.4911 45.0785 11.2974 45.4175 10.9101C45.8048 10.5227 45.9985 10.0385 45.9985 9.50591V2.58201C45.9985 1.46838 45.0785 0.548419 43.9649 0.548419L37.041 0.5C36.5084 0.5 35.9758 0.693676 35.6368 1.08103C35.2495 1.46838 35.0558 1.95257 35.0558 2.48517C35.0558 3.55039 35.9758 4.51877 37.0894 4.51877H39.1714L30.456 13.1858C29.6813 13.9605 29.6813 15.2678 30.456 16.0425C31.2307 16.8172 32.4896 16.8172 33.3127 16.0425Z" fill="black"/>
<path d="M12.6858 30.9583L4.01877 39.6253V37.5433C4.01877 36.4781 3.09881 35.5097 1.98517 35.5097C1.45257 35.5097 0.919959 35.7034 0.581027 36.0907C0.193676 36.4781 0 36.9623 0 37.4949V44.4188C0 45.5324 0.919959 46.4524 2.03359 46.4524H8.9575C9.4901 46.4524 10.0227 46.2587 10.3616 45.8713C10.749 45.484 10.9427 44.9998 10.9427 44.4672C10.9427 43.402 10.0227 42.4336 8.90908 42.4336H6.82706L15.494 33.7666C16.2688 32.9919 16.2688 31.6846 15.494 30.9099C14.7678 30.1836 13.5089 30.1836 12.6858 30.9583Z" fill="black"/>
<path d="M45.4175 36.1368C45.0301 35.7495 44.5459 35.5558 44.0133 35.5558C42.9481 35.5558 41.9797 36.4758 41.9797 37.5894V39.6714L33.3127 30.956C32.538 30.1813 31.2307 30.1813 30.456 30.956C29.6813 31.7307 29.6813 33.038 30.456 33.8127L39.123 42.4797H37.041C35.9758 42.4797 35.0074 43.3997 35.0074 44.5133C35.0074 45.0459 35.2011 45.5785 35.5884 45.9175C35.9758 46.2564 36.46 46.4985 36.9926 46.4985H43.9165C45.0301 46.4985 45.9501 45.5785 45.9501 44.4649V37.541C45.9985 37.0084 45.8048 36.4758 45.4175 36.1368Z" fill="black"/>
<path d="M2.03205 11.4911C3.09727 11.4911 4.06564 10.5711 4.06564 9.4575V7.37548L12.7326 16.0425C13.5073 16.8172 14.8146 16.8172 15.5893 16.0425C16.364 15.2678 16.364 13.9605 15.5893 13.1858L6.87394 4.51877H8.95595C10.0212 4.51877 10.9895 3.59881 10.9895 2.48517C10.9895 1.95257 10.7959 1.41996 10.4085 1.08103C10.0212 0.693676 9.53698 0.5 9.00437 0.5H2.08047C0.966834 0.5 0.046875 1.41996 0.046875 2.53359V9.4575C0.046875 9.9901 0.240551 10.5227 0.627902 10.8616C0.966834 11.249 1.45102 11.4911 2.03205 11.4911Z" fill="black"/>
<path d="M23.002 30.422C26.826 30.422 29.9259 27.3221 29.9259 23.4981C29.9259 19.6742 26.826 16.5742 23.002 16.5742C19.1781 16.5742 16.0781 19.6742 16.0781 23.4981C16.0781 27.3221 19.1781 30.422 23.002 30.422Z" fill="black"/>
</svg>
