<svg width="64" height="64" viewBox="0 0 64 64" fill="none" xmlns="http://www.w3.org/2000/svg">
<path d="M62.7018 15.78C62.3218 15.31 61.7618 15.04 61.1618 15.04H57.5818V7.02C57.5818 6.02 56.7718 5.21 55.7718 5.21H23.8618C23.7518 5.21 23.6518 5.16 23.5818 5.07L20.3318 0.73C19.9918 0.28 19.4518 0 18.8818 0H7.37179C6.37179 0 5.56179 0.81 5.56179 1.81V15.04H1.98179C1.38179 15.04 0.821788 15.31 0.441788 15.78C0.0617876 16.25 -0.0782124 16.85 0.0417876 17.44L5.37179 42.54C5.56179 43.45 6.38179 44.11 7.31179 44.11H8.24179C8.64179 44.11 8.97179 43.78 8.97179 43.38C8.97179 42.98 8.64179 42.65 8.24179 42.65H7.31179C7.06179 42.65 6.85179 42.48 6.80179 42.23L1.47179 17.14C1.42179 16.92 1.51179 16.77 1.57179 16.7C1.63179 16.63 1.76179 16.51 1.98179 16.51H61.1618C61.3818 16.51 61.5118 16.63 61.5718 16.7C61.6318 16.77 61.7218 16.93 61.6818 17.14L56.3518 42.25C56.2918 42.48 56.0718 42.66 55.8318 42.66C55.4318 42.66 55.1018 42.99 55.1018 43.39C55.1018 43.79 55.4318 44.12 55.8318 44.12C56.7618 44.12 57.5818 43.46 57.7718 42.55L63.1018 17.45C63.2318 16.85 63.0818 16.25 62.7018 15.78ZM7.02179 1.81C7.02179 1.62 7.18179 1.46 7.37179 1.46H18.8818C18.9918 1.46 19.0918 1.51 19.1618 1.6L22.4118 5.94C22.7518 6.39 23.2918 6.67 23.8618 6.67H55.7718C55.9618 6.67 56.1218 6.83 56.1218 7.02V15.04H51.4018V12.15C51.4018 10.97 50.4418 10 49.2518 10H13.9018C12.7218 10 11.7518 10.96 11.7518 12.15V15.04H7.02179V1.81ZM49.9318 15.04H13.2118V12.15C13.2118 11.77 13.5218 11.46 13.9018 11.46H49.2518C49.6318 11.46 49.9418 11.77 49.9418 12.15V15.04H49.9318Z" fill="#0008C0"/>
<path d="M26.6987 42.6562C26.2987 42.6562 25.9688 42.9862 25.9688 43.3862C25.9688 43.7862 26.2987 44.1162 26.6987 44.1162H36.3487C36.7487 44.1162 37.0787 43.7862 37.0787 43.3862C37.0787 42.9862 36.7487 42.6562 36.3487 42.6562H26.6987Z" fill="#0008C0"/>
<path d="M22.0625 50.8438H12.0325C8.0525 50.8438 4.8125 54.0838 4.8125 58.0638V62.6037C4.8125 63.0037 5.1425 63.3337 5.5425 63.3337H28.5425C28.9425 63.3337 29.2725 63.0037 29.2725 62.6037V58.0638C29.2825 54.0738 26.0425 50.8438 22.0625 50.8438ZM19.2925 52.3037L17.0525 56.0137L14.8125 52.3037H19.2925ZM27.8225 61.8638H24.5525V59.6437C24.5525 59.2437 24.2225 58.9137 23.8225 58.9137C23.4225 58.9137 23.0925 59.2437 23.0925 59.6437V61.8638H11.0025V59.6437C11.0025 59.2437 10.6725 58.9137 10.2725 58.9137C9.8725 58.9137 9.5425 59.2437 9.5425 59.6437V61.8638H6.2825V58.0537C6.2825 54.8837 8.8625 52.3037 12.0325 52.3037H13.1025L16.4225 57.8037C16.5525 58.0237 16.7925 58.1538 17.0525 58.1538C17.3125 58.1538 17.5425 58.0237 17.6825 57.8037L21.0025 52.3037H22.0725C25.2425 52.3037 27.8225 54.8837 27.8225 58.0537V61.8638Z" fill="#0008C0"/>
<path d="M51.1094 50.8438H41.0794C37.0994 50.8438 33.8594 54.0838 33.8594 58.0638V62.6037C33.8594 63.0037 34.1894 63.3337 34.5894 63.3337H57.5894C57.9894 63.3337 58.3194 63.0037 58.3194 62.6037V58.0638C58.3194 54.0738 55.0894 50.8438 51.1094 50.8438ZM48.3294 52.3037L46.0894 56.0137L43.8494 52.3037H48.3294ZM56.8594 61.8638H53.5894V59.6437C53.5894 59.2437 53.2594 58.9137 52.8594 58.9137C52.4594 58.9137 52.1294 59.2437 52.1294 59.6437V61.8638H40.0494V59.6437C40.0494 59.2437 39.7194 58.9137 39.3194 58.9137C38.9194 58.9137 38.5894 59.2437 38.5894 59.6437V61.8638H35.3194V58.0537C35.3194 54.8837 37.8994 52.3037 41.0694 52.3037H42.1394L45.4594 57.8037C45.5894 58.0237 45.8294 58.1538 46.0894 58.1538C46.3494 58.1538 46.5794 58.0237 46.7194 57.8037L50.0394 52.3037H51.1094C54.2794 52.3037 56.8594 54.8837 56.8594 58.0537V61.8638Z" fill="#0008C0"/>
<path d="M31.9144 21.6797C31.5144 21.6797 31.1844 22.0097 31.1844 22.4097V27.9297H19.6144C18.1744 27.9297 16.9944 29.0997 16.9944 30.5497V34.5297C13.1244 34.5597 9.98438 37.7197 9.98438 41.5997C9.98438 45.4997 13.1544 48.6697 17.0544 48.6697C20.9544 48.6697 24.1244 45.4997 24.1244 41.5997C24.1244 38.1797 21.6844 35.3197 18.4544 34.6697V30.5497C18.4544 29.9097 18.9744 29.3897 19.6144 29.3897H31.9144H44.2144C44.8544 29.3897 45.3744 29.9097 45.3744 30.5497V34.5697C41.8144 34.9397 39.0344 37.9497 39.0344 41.5997C39.0344 45.4997 42.2044 48.6697 46.1044 48.6697C50.0044 48.6697 53.1744 45.4997 53.1744 41.5997C53.1744 37.9497 50.3944 34.9297 46.8344 34.5697V30.5497C46.8344 29.1097 45.6644 27.9297 44.2144 27.9297H32.6444V22.4097C32.6444 22.0097 32.3144 21.6797 31.9144 21.6797ZM22.6644 41.5997C22.6644 44.6897 20.1444 47.2097 17.0544 47.2097C13.9644 47.2097 11.4444 44.6897 11.4444 41.5997C11.4444 38.5097 13.9644 35.9897 17.0544 35.9897C20.1444 35.9897 22.6644 38.5097 22.6644 41.5997ZM51.7044 41.5997C51.7044 44.6897 49.1844 47.2097 46.0944 47.2097C43.0044 47.2097 40.4844 44.6897 40.4844 41.5997C40.4844 38.5097 43.0044 35.9897 46.0944 35.9897C49.1944 35.9897 51.7044 38.5097 51.7044 41.5997Z" fill="#0008C0"/>
</svg>
