<svg width="73" height="60" viewBox="0 0 73 60" fill="none" xmlns="http://www.w3.org/2000/svg">
<path fill-rule="evenodd" clip-rule="evenodd" d="M1 9.48323C1 4.79791 4.79791 1 9.48323 1H63.7668C68.4521 1 72.25 4.79791 72.25 9.48323V40.0189C72.25 44.7043 68.4521 48.5022 63.7668 48.5022H9.48323C4.79791 48.5022 1 44.7043 1 40.0189V9.48323ZM9.48323 4.39394C6.67142 4.39394 4.39394 6.67142 4.39394 9.48323V40.0189C4.39394 42.8307 6.67142 45.1082 9.48323 45.1082H63.7668C66.5786 45.1082 68.8561 42.8307 68.8561 40.0189V9.48323C68.8561 6.67142 66.5786 4.39394 63.7668 4.39394H9.48323Z" fill="#0008C0" stroke="white" stroke-width="1.5"/>
<path fill-rule="evenodd" clip-rule="evenodd" d="M47.5747 23.0971C40.5546 18.5167 32.6977 18.5167 25.6777 23.0971C24.8921 23.6092 23.8424 23.3865 23.3303 22.6009C22.8182 21.8184 23.0408 20.7656 23.8233 20.2535C31.9694 14.9416 41.2824 14.9416 49.4285 20.2535C50.211 20.7656 50.4337 21.8184 49.9216 22.6009C49.4094 23.3865 48.3603 23.6092 47.5747 23.0971ZM36.6266 28.5108C34.9885 28.5108 33.2168 29.1151 30.7135 30.6196C29.9119 31.0999 28.8687 30.8391 28.3851 30.0375C27.9048 29.2328 28.1657 28.1895 28.9672 27.7092C31.6868 26.0774 34.0883 25.1168 36.6265 25.1168C39.1648 25.1168 41.5663 26.0774 44.2859 27.7092C45.0875 28.1895 45.3483 29.2328 44.868 30.0375C44.3845 30.8391 43.3444 31.0999 42.5396 30.6196C40.0363 29.1151 38.2647 28.5108 36.6266 28.5108Z" fill="#0008C0" stroke="white" stroke-width="1.5"/>
<path fill-rule="evenodd" clip-rule="evenodd" d="M20.6047 45.396C21.384 45.9145 21.5939 46.9674 21.0723 47.7466L14.2877 57.9252C13.7692 58.7045 12.7164 58.9176 11.9371 58.396C11.1546 57.8775 10.9446 56.8246 11.4663 56.0454L18.251 45.8668C18.7694 45.0843 19.8223 44.8743 20.6047 45.396Z" fill="#0008C0" stroke="white" stroke-width="1.5"/>
<path fill-rule="evenodd" clip-rule="evenodd" d="M52.648 45.396C53.4273 44.8744 54.4802 45.0843 54.9986 45.8668L61.7864 56.0453C62.3049 56.8246 62.095 57.8775 61.3157 58.3959C60.5332 58.9176 59.4803 58.7045 58.9619 57.9252L52.1773 47.7466C51.6556 46.9673 51.8655 45.9145 52.648 45.396Z" fill="#0008C0" stroke="white" stroke-width="1.5"/>
</svg>
