<svg width="63" height="74" viewBox="0 0 63 74" fill="none" xmlns="http://www.w3.org/2000/svg">
<path d="M25.9893 1.25293C28.7024 -0.302211 32.1677 0.629389 33.7295 3.33887L33.7314 3.34082L36.9502 8.86426V8.86914L37.0176 8.98535L37.2852 9.44824L37.4297 9.69824H53.7832C58.4441 9.70419 62.2499 13.3616 62.4883 17.9629L62.5 18.4111V53.6787C62.4998 58.4946 58.5992 62.4016 53.7783 62.4131H36.1504L36.584 63.1631L41.3086 71.3379C41.565 71.7805 41.564 72.3293 41.3047 72.7793C41.0465 73.2241 40.5693 73.5 40.0537 73.5H22.9443C22.4286 73.5 21.9504 73.2241 21.6924 72.7764C21.4353 72.3302 21.4368 71.7814 21.6953 71.332L26.4199 63.1631L26.8535 62.4131H9.24023C4.56679 62.4074 0.750709 58.7401 0.511719 54.127L0.5 53.6777V18.4111C0.512 13.5956 4.42174 9.69824 9.23926 9.69824H24.3105L23.8877 8.95117C22.3547 6.24534 23.2929 2.81082 25.9883 1.25195L25.9893 1.25293ZM30.0449 62.6611L25.8838 69.8623L25.4502 70.6123H37.5557L37.1221 69.8623L32.9541 62.6611L32.8096 62.4121H30.1895L30.0449 62.6611ZM3.3916 53.6777L3.39941 53.9785C3.55369 56.9675 5.95115 59.3634 8.93945 59.5176L9.24023 59.5254H53.7852C57.0062 59.5154 59.6147 56.8989 59.6113 53.6768L59.6104 52.4727L59.6084 52.4736L59.6094 52.2949H3.3916V53.6777ZM9.24023 12.5869C6.0226 12.587 3.40746 15.1903 3.39746 18.4092V49.4102H59.6113V18.4102C59.608 15.1939 56.9988 12.5912 53.7842 12.5879H39.0977L39.5303 13.3379L51.0977 33.3906V33.3916C51.1549 33.4923 51.1982 33.5954 51.2256 33.6982L51.2402 33.7559C51.2427 33.768 51.2459 33.7814 51.249 33.7949C51.2687 33.88 51.28 33.9683 51.2822 34.0566C51.2829 34.0888 51.2861 34.1159 51.2891 34.1357C51.2896 34.1391 51.2905 34.1423 51.291 34.1455V42.5635C51.2534 43.4031 50.581 44.0731 49.7402 44.1055H12.6582C12.2669 44.1122 11.894 43.9654 11.6162 43.6924L11.6152 43.6904L11.5166 43.585C11.3005 43.3274 11.1807 43.0015 11.1807 42.6611C11.1807 42.2749 11.3376 41.9015 11.6152 41.6309C11.895 41.3583 12.2679 41.2098 12.6553 41.2188L13.167 41.2305V41.2158H44.6289L43.0205 40.2832L41.8262 39.5908C41.7129 39.5042 41.6065 39.4243 41.5 39.3408C41.4448 39.2809 41.391 39.2104 41.3389 39.1289L41.3213 39.1035C41.3063 39.0829 41.2922 39.0657 41.2812 39.0527C41.2746 39.0448 41.2667 39.036 41.2617 39.0303L27.1729 14.6689L26.1201 12.8379L25.9756 12.5869H9.24023ZM47.6514 37.0449L46.165 37.9023L45.416 38.335L46.1641 38.7686L47.6504 39.6299L48.4014 40.0645V36.6113L47.6514 37.0449ZM33.5537 12.6543L30.8369 14.2246L30.4033 14.4756L30.6543 14.9082L42.8076 35.9287L43.0576 36.3613L43.4902 36.1123L47.4414 33.832L47.874 33.583L47.624 33.1494L35.9033 12.8379L35.7588 12.5869H33.6699L33.5537 12.6543ZM51.2969 34.1777C51.2965 34.1757 51.2953 34.1728 51.2949 34.1699C51.2947 34.1684 51.2942 34.1668 51.2939 34.165C51.2951 34.1713 51.2965 34.1758 51.2969 34.1777ZM31.2197 4.7793C30.4569 3.45239 28.7612 2.99376 27.4326 3.75391L27.4277 3.75684C26.1085 4.53436 25.6554 6.22713 26.4121 7.55762L26.4131 7.55957L28.7041 11.5381L28.9541 11.9717L29.3877 11.7217L33.3506 9.43262L33.7852 9.18164L33.5322 8.74805L31.2207 4.7793H31.2197Z" fill="#0008C0" stroke="white"/>
</svg>
