<svg width="52" height="52" viewBox="0 0 52 52" fill="none" xmlns="http://www.w3.org/2000/svg">
<path d="M51.0122 12.8381C50.7031 12.4557 50.2475 12.2361 49.7593 12.2361H46.8467V5.71125C46.8467 4.89768 46.1878 4.23869 45.3742 4.23869H19.4132C19.3237 4.23869 19.2424 4.19801 19.1854 4.12479L16.5413 0.593905C16.2647 0.227799 15.8254 0 15.3616 0H5.99746C5.18389 0 4.5249 0.658991 4.5249 1.47256V12.2361H1.61232C1.12418 12.2361 0.668581 12.4557 0.359425 12.8381C0.0502684 13.2205 -0.0636312 13.7086 0.0339971 14.1886L4.37032 34.6092C4.5249 35.3496 5.19202 35.8865 5.94864 35.8865H6.70526C7.03069 35.8865 7.29917 35.618 7.29917 35.2926C7.29917 34.9672 7.03069 34.6987 6.70526 34.6987H5.94864C5.74525 34.6987 5.5744 34.5604 5.53372 34.357L1.1974 13.9446C1.15672 13.7656 1.22994 13.6435 1.27876 13.5866C1.32757 13.5296 1.43334 13.432 1.61232 13.432H49.7593C49.9383 13.432 50.0441 13.5296 50.0929 13.5866C50.1417 13.6435 50.2149 13.7737 50.1824 13.9446L45.8461 34.3733C45.7972 34.5604 45.6183 34.7068 45.423 34.7068C45.0976 34.7068 44.8291 34.9753 44.8291 35.3007C44.8291 35.6262 45.0976 35.8947 45.423 35.8947C46.1796 35.8947 46.8467 35.3577 47.0013 34.6174L51.3376 14.1968C51.4434 13.7086 51.3214 13.2205 51.0122 12.8381ZM5.71271 1.47256C5.71271 1.31798 5.84288 1.18781 5.99746 1.18781H15.3616C15.4511 1.18781 15.5325 1.22849 15.5894 1.30171L18.2335 4.8326C18.5101 5.1987 18.9495 5.4265 19.4132 5.4265H45.3742C45.5288 5.4265 45.6589 5.55667 45.6589 5.71125V12.2361H41.8189V9.88486C41.8189 8.92485 41.0379 8.13569 40.0697 8.13569H11.3101C10.35 8.13569 9.56089 8.91671 9.56089 9.88486V12.2361H5.71271V1.47256ZM40.6229 12.2361H10.7487V9.88486C10.7487 9.5757 11.0009 9.3235 11.3101 9.3235H40.0697C40.3789 9.3235 40.6311 9.5757 40.6311 9.88486V12.2361H40.6229Z" fill="#5B5FD1"/>
<path d="M21.7189 34.707C21.3935 34.707 21.125 34.9755 21.125 35.3009C21.125 35.6264 21.3935 35.8948 21.7189 35.8948H29.5698C29.8953 35.8948 30.1637 35.6264 30.1637 35.3009C30.1637 34.9755 29.8953 34.707 29.5698 34.707H21.7189Z" fill="#5B5FD1"/>
<path d="M17.9481 41.3633H9.78803C6.55003 41.3633 3.91406 43.9992 3.91406 47.2372V50.9308C3.91406 51.2563 4.18254 51.5248 4.50797 51.5248H23.22C23.5455 51.5248 23.814 51.2563 23.814 50.9308V47.2372C23.8221 43.9911 21.1861 41.3633 17.9481 41.3633ZM15.6945 42.5511L13.8721 45.5694L12.0498 42.5511H15.6945ZM22.6343 50.3288H19.9739V48.5227C19.9739 48.1973 19.7054 47.9288 19.38 47.9288C19.0546 47.9288 18.7861 48.1973 18.7861 48.5227V50.3288H8.95005V48.5227C8.95005 48.1973 8.68158 47.9288 8.35615 47.9288C8.03072 47.9288 7.76224 48.1973 7.76224 48.5227V50.3288H5.11001V47.2291C5.11001 44.6501 7.20902 42.5511 9.78803 42.5511H10.6585L13.3596 47.0257C13.4654 47.2047 13.6606 47.3105 13.8721 47.3105C14.0837 47.3105 14.2708 47.2047 14.3847 47.0257L17.0857 42.5511H17.9563C20.5353 42.5511 22.6343 44.6501 22.6343 47.2291V50.3288Z" fill="#5B5FD1"/>
<path d="M41.5809 41.3633H33.4208C30.1828 41.3633 27.5469 43.9992 27.5469 47.2372V50.9308C27.5469 51.2563 27.8154 51.5248 28.1408 51.5248H46.8529C47.1783 51.5248 47.4468 51.2563 47.4468 50.9308V47.2372C47.4468 43.9911 44.8189 41.3633 41.5809 41.3633ZM39.3192 42.5511L37.4968 45.5694L35.6744 42.5511H39.3192ZM46.259 50.3288H43.5986V48.5227C43.5986 48.1973 43.3301 47.9288 43.0047 47.9288C42.6793 47.9288 42.4108 48.1973 42.4108 48.5227V50.3288H32.5829V48.5227C32.5829 48.1973 32.3144 47.9288 31.989 47.9288C31.6635 47.9288 31.3951 48.1973 31.3951 48.5227V50.3288H28.7347V47.2291C28.7347 44.6501 30.8337 42.5511 33.4127 42.5511H34.2832L36.9843 47.0257C37.09 47.2047 37.2853 47.3105 37.4968 47.3105C37.7083 47.3105 37.8955 47.2047 38.0094 47.0257L40.7104 42.5511H41.5809C44.16 42.5511 46.259 44.6501 46.259 47.2291V50.3288Z" fill="#5B5FD1"/>
<path d="M25.9588 17.6406C25.6333 17.6406 25.3648 17.9091 25.3648 18.2345V22.7254H15.9519C14.7803 22.7254 13.8203 23.6773 13.8203 24.857V28.095C10.6718 28.1194 8.11719 30.6903 8.11719 33.8469C8.11719 37.0198 10.6962 39.5988 13.8691 39.5988C17.042 39.5988 19.621 37.0198 19.621 33.8469C19.621 31.0645 17.6359 28.7377 15.0081 28.2089V24.857C15.0081 24.3363 15.4312 23.9132 15.9519 23.9132H25.9588H35.9656C36.4863 23.9132 36.9094 24.3363 36.9094 24.857V28.1275C34.0131 28.4285 31.7514 30.8774 31.7514 33.8469C31.7514 37.0198 34.3304 39.5988 37.5033 39.5988C40.6762 39.5988 43.2552 37.0198 43.2552 33.8469C43.2552 30.8774 40.9935 28.4204 38.0972 28.1275V24.857C38.0972 23.6854 37.1453 22.7254 35.9656 22.7254H26.5527V18.2345C26.5527 17.9091 26.2842 17.6406 25.9588 17.6406ZM18.4332 33.8469C18.4332 36.3608 16.383 38.411 13.8691 38.411C11.3552 38.411 9.305 36.3608 9.305 33.8469C9.305 31.333 11.3552 29.2828 13.8691 29.2828C16.383 29.2828 18.4332 31.333 18.4332 33.8469ZM42.0593 33.8469C42.0593 36.3608 40.0091 38.411 37.4952 38.411C34.9812 38.411 32.931 36.3608 32.931 33.8469C32.931 31.333 34.9812 29.2828 37.4952 29.2828C40.0172 29.2828 42.0593 31.333 42.0593 33.8469Z" fill="#5B5FD1"/>
</svg>
