<svg width="45" height="44" viewBox="0 0 45 44" fill="none" xmlns="http://www.w3.org/2000/svg">
<path d="M43.2276 22.2705C34.824 19.9496 33.2091 18.3348 30.8901 9.93304C30.7591 9.46026 30.3293 9.13281 29.8381 9.13281C29.3469 9.13281 28.9171 9.46028 28.7862 9.93304C26.4672 18.3346 24.8524 19.9494 16.4487 22.2705C15.9759 22.4015 15.6484 22.8313 15.6484 23.3225C15.6484 23.8137 15.9759 24.2435 16.4487 24.3745C24.8523 26.6934 26.465 28.3082 28.7862 36.712C28.9171 37.1848 29.3469 37.5122 29.8381 37.5122C30.3293 37.5122 30.7591 37.1848 30.8901 36.712C33.2111 28.3083 34.8239 26.6956 43.2276 24.3745C43.7004 24.2435 44.0278 23.8137 44.0278 23.3225C44.0278 22.8313 43.7004 22.4015 43.2276 22.2705Z" fill="#EDBF1B"/>
<path d="M5.19086 10.3297C10.3035 11.7419 11.2058 12.6445 12.6163 17.7551C12.7473 18.2279 13.1791 18.5553 13.6683 18.5553C14.1574 18.5553 14.5913 18.2279 14.7203 17.7551C16.1304 12.6445 17.0331 11.7417 22.1457 10.3297C22.6185 10.1987 22.9459 9.76887 22.9459 9.27766C22.9459 8.78646 22.6185 8.35666 22.1457 8.22567C17.0331 6.81347 16.1308 5.91085 14.7203 0.800232C14.5913 0.327449 14.1595 0 13.6683 0C13.1771 0 12.7473 0.32747 12.6163 0.800232C11.2041 5.91285 10.3015 6.81362 5.19086 8.22567C4.71807 8.35666 4.39062 8.78646 4.39062 9.27766C4.39062 9.76887 4.71809 10.1987 5.19086 10.3297Z" fill="#EDBF1B"/>
<path d="M19.2152 32.7857C13.7855 31.2875 12.7418 30.2437 11.2433 24.8159C11.1123 24.3431 10.6825 24.0156 10.1913 24.0156C9.70012 24.0156 9.27033 24.3431 9.13934 24.8159C7.64115 30.2435 6.59734 31.2877 1.16742 32.7857C0.694636 32.9167 0.367188 33.3465 0.367188 33.8377C0.367188 34.3289 0.694657 34.7587 1.16742 34.8897C6.59713 36.3899 7.64084 37.4317 9.13934 42.8595C9.27033 43.3323 9.70012 43.6597 10.1913 43.6597C10.6825 43.6597 11.1123 43.3322 11.2433 42.8595C12.7415 37.4298 13.7853 36.3876 19.2152 34.8897C19.688 34.7587 20.0155 34.3289 20.0155 33.8377C20.0155 33.3465 19.686 32.9167 19.2152 32.7857Z" fill="#EDBF1B"/>
</svg>
