<svg width="67" height="49" viewBox="0 0 67 49" fill="none" xmlns="http://www.w3.org/2000/svg">
<path d="M56.8077 36.5782C56.2569 36.5782 55.8077 37.0235 55.8077 37.5782C55.796 39.5626 54.1905 41.168 52.2061 41.1759H46.2061L48.2061 39.1759C48.5928 38.7813 48.5928 38.1525 48.2061 37.7579C48.0186 37.5665 47.7647 37.461 47.499 37.461C47.2295 37.461 46.9756 37.5665 46.7881 37.7579L42.9873 41.5587C42.6084 41.9454 42.6084 42.5704 42.9873 42.9571L46.7881 46.7579C46.9756 46.9415 47.2256 47.043 47.4873 47.0391C47.7569 47.043 48.0147 46.9454 48.2061 46.7579C48.5928 46.3633 48.5928 45.7345 48.2061 45.336L46.1045 43.336H52.1084C55.1943 43.3282 57.6982 40.8243 57.7061 37.7383C57.753 37.4609 57.6826 37.1797 57.5108 36.9609C57.3389 36.7422 57.085 36.6016 56.8077 36.5782Z" fill="#F5841F"/>
<path d="M5.76214 8.15813H11.7621L9.76214 10.1581C9.57073 10.3456 9.46526 10.6034 9.46526 10.8691C9.46526 11.1347 9.57073 11.3925 9.76214 11.58C9.94573 11.7714 10.1957 11.8769 10.4614 11.8808C10.7309 11.8769 10.9887 11.7714 11.1801 11.58L14.8012 7.93941C14.9887 7.75191 15.0981 7.4941 15.0981 7.22847C15.0981 6.96285 14.9887 6.70894 14.8012 6.51753L11.0004 2.73633V2.74023C10.6059 2.35742 9.97701 2.35742 9.58241 2.74023C9.391 2.92773 9.28553 3.18164 9.28553 3.45117C9.28553 3.71679 9.391 3.9707 9.58241 4.1582L11.5824 6.1582H5.58241C4.09411 6.1543 2.66441 6.74414 1.61361 7.8027C0.566706 8.8574 -0.0152943 10.291 0.000305717 11.7793C0.000305717 12.041 0.105776 12.2949 0.293276 12.4785C0.484686 12.6621 0.738586 12.7637 1.00031 12.7598C1.26593 12.7598 1.51984 12.6543 1.70734 12.4668C1.89484 12.2793 2.00031 12.0254 2.00031 11.7598C1.9964 10.8067 2.3714 9.89257 3.04331 9.21677C3.71518 8.54099 4.62921 8.15817 5.58241 8.15817L5.76214 8.15813Z" fill="#F5841F"/>
<path d="M56.2263 10.8789C55.7342 8.3867 54.5897 6.0742 52.9061 4.1758C50.6678 1.5274 47.3749 0 43.9061 0C40.4373 0 37.1444 1.5273 34.9061 4.1758C34.0506 5.14064 33.3435 6.2266 32.8044 7.3985C29.0232 5.8087 24.6482 6.836 21.9644 9.9376C19.5191 12.7618 18.5309 16.5587 19.2847 20.2186L8.80475 23.9374H4.80475C3.59775 23.9491 2.62505 24.9296 2.62505 26.1366V33.5585C2.62114 34.1405 2.84771 34.6991 3.25786 35.1132C3.66411 35.5234 4.2227 35.7577 4.80476 35.7577H8.80476V48.5587H11.3634C13.4806 48.5548 15.2814 47.0235 15.6251 44.9376L16.6251 37.9376L28.0861 41.1368C28.3712 41.215 28.6681 41.254 28.965 41.2579C30.5392 41.3243 31.8791 40.1134 31.965 38.5391V29.0196L59.086 29.0157C60.9883 28.7579 62.7344 27.8204 64.004 26.379C67.1954 22.6368 67.1954 17.1368 64.004 13.399C62.0704 11.1959 59.0817 10.2265 56.2263 10.8789ZM4.80435 33.7579C4.70279 33.7579 4.61294 33.6798 4.60513 33.5782V26.1563C4.60513 26.043 4.69107 25.9493 4.80435 25.9376H8.64415V33.7384L4.80435 33.7579ZM13.5231 44.6369C13.3825 45.7853 12.4021 46.6447 11.2459 46.6369H10.8044V36.3749L14.8044 37.453L13.5231 44.6369ZM29.5231 39.0158C29.32 39.1955 29.0544 39.2931 28.7849 39.2971H28.4646L10.8046 34.2775V25.3557L28.5236 19.1369C28.6564 19.1095 28.7931 19.1095 28.9259 19.1369C29.3673 19.1369 29.8673 19.4376 29.8673 19.8751V38.6131L29.8634 38.617C29.84 38.7733 29.7618 38.9139 29.6447 39.0155L29.5231 39.0158ZM62.3821 25.0158C61.4681 26.0783 60.2064 26.7892 58.8236 27.0158H31.8626V19.797C31.8196 19.0314 31.468 18.3204 30.8938 17.8126C30.3196 17.3048 29.5696 17.047 28.804 17.0978C28.429 17.0939 28.054 17.1642 27.7024 17.297L21.1243 19.5978C20.5931 16.6369 21.4251 13.5978 23.3821 11.3166C24.8313 9.65248 26.9173 8.68378 29.1243 8.65638C30.4055 8.66419 31.6634 8.99232 32.7845 9.61732C33.0345 9.76576 33.3353 9.79701 33.6126 9.69935C33.8861 9.6017 34.1009 9.39076 34.2025 9.11732C34.7142 7.79702 35.4525 6.57822 36.3822 5.51572C38.2455 3.31262 40.9877 2.03912 43.8744 2.03912C46.7611 2.03912 49.5033 3.31252 51.3627 5.51572C53.0307 7.42592 54.0775 9.79692 54.3627 12.3165C54.4095 12.629 54.5931 12.9025 54.8627 13.0587C55.1439 13.1876 55.4642 13.1876 55.7455 13.0587C58.0893 12.0782 60.7963 12.7228 62.4447 14.6564C65.058 17.6056 65.0853 22.0392 62.5033 25.0154L62.3821 25.0158Z" fill="#F5841F"/>
</svg>
