<svg width="40" height="51" viewBox="0 0 40 51" fill="none" xmlns="http://www.w3.org/2000/svg">
<path d="M9.71717 31.7667C11.4141 33.1012 13.3939 34.0877 15.5152 34.7259C17.7071 35.3642 19.8283 35.7123 21.8788 35.7123C22.3737 35.7123 22.8687 35.6543 23.3636 35.5963C23.8586 35.5383 24.3535 35.3642 24.8485 35.1901C25.2727 34.958 25.6263 34.7259 25.9091 34.3778C26.1919 34.0296 26.3333 33.6235 26.3333 33.1012C26.3333 32.1728 25.697 31.4765 24.3535 30.9543C23.0101 30.4321 21.4545 29.9099 19.6162 29.3877C17.9899 28.9235 16.3636 28.4012 14.596 27.879C12.899 27.2988 11.3434 26.6025 9.85858 25.6741C8.44444 24.8037 7.24242 23.7012 6.32323 22.4247C5.40404 21.1481 4.90909 19.5815 4.90909 17.7247C4.90909 16.1 5.26263 14.6494 5.89899 13.3728C6.53535 12.0963 7.45455 10.9938 8.58586 10.1235C9.71717 9.19506 10.8485 8.49877 12.3333 7.91852C13.8182 7.33827 15.5152 6.9321 16.9293 6.64198V2H25.4141V6.52593C27.5354 6.75802 29.5152 7.22222 31.4242 7.86049C33.3333 8.49877 35.101 9.42716 36.7273 10.6457L30.5051 17.3765C29.303 16.5642 27.8889 15.8679 26.3333 15.4037C24.7778 14.9395 23.2929 14.7074 21.8788 14.7074C21.3131 14.7074 20.7475 14.7074 20.1111 14.7654C19.4747 14.8235 18.9091 14.9395 18.3434 15.1136C17.7778 15.2877 17.3535 15.5778 17 15.9259C16.6465 16.2741 16.4343 16.7383 16.4343 17.3765C16.4343 17.8988 16.6465 18.3049 17 18.6531C17.3535 19.0012 17.8485 19.2914 18.5556 19.5815C19.1919 19.8716 19.9697 20.1037 20.7475 20.3938C21.596 20.6259 22.4444 20.858 23.3636 21.0901C24.9192 21.4963 26.5455 22.0185 28.3131 22.5407C30.0101 23.063 31.5657 23.8173 33.0505 24.6877C34.4646 25.558 35.6667 26.6605 36.5859 27.9951C37.5051 29.3296 38 30.9543 38 32.9272C38 34.4358 37.6465 35.7704 36.9394 36.9889C36.2323 38.2074 35.3131 39.2519 34.1818 40.1222C33.0505 40.9926 31.7071 41.7469 30.1515 42.3852C28.596 42.9654 26.7576 43.4296 25.3434 43.7198V49H17.0707V43.8938C14.9495 43.6617 12.0505 43.1395 9.57576 42.3272C7.10101 41.5148 4.9798 40.3543 3 38.7877L9.71717 31.7667Z" fill="white" stroke="#88BF85" stroke-width="3"/>
</svg>
