<svg width="46" height="45" viewBox="0 0 46 45" fill="none" xmlns="http://www.w3.org/2000/svg">
<path d="M45 26.3837C45 24.7534 44.0465 23.3512 42.6855 22.6665C43.476 21.9083 43.9731 20.8486 43.9731 19.6666C43.9731 17.3677 42.0987 15.4928 39.8005 15.4928H30.8033C32.3354 10.1288 32.368 6.14255 30.8522 3.68068C29.972 2.25409 28.5866 1.34108 26.8344 1.03946C25.2778 0.7786 23.7946 1.83835 23.5257 3.41167C22.9063 7.03926 21.3741 10.2593 18.97 12.9738C17.2097 14.9548 14.7811 16.2591 12.1161 16.6422C11.2278 15.3216 9.72013 14.4575 8.01686 14.4575H5.94684C3.21671 14.4575 1 16.6748 1 19.4057V38.0165C1 40.7474 3.21671 42.9647 5.94684 42.9647H8.01686C9.78533 42.9647 11.3256 42.0354 12.2058 40.6414H13.2245C13.9091 40.6414 14.5855 40.8534 15.1315 41.2528L17.772 43.0951C18.587 43.6821 19.5975 44 20.6244 44H37.7305C40.0287 44 41.9031 42.1251 41.9031 39.8262C41.9031 38.6442 41.406 37.5844 40.6155 36.8263C41.9846 36.1416 42.93 34.7394 42.93 33.1091C42.93 32.0738 42.5388 31.1363 41.9113 30.4026C43.6879 29.9217 45 28.3157 45 26.3919V26.3837ZM8.00871 41.3343H5.93869C4.10502 41.3343 2.62178 39.8425 2.62178 38.0165V19.4057C2.62178 17.5715 4.11317 16.0879 5.93869 16.0879H8.00871C9.84238 16.0879 11.3256 17.5797 11.3256 19.4057V38.0165C11.3256 39.8507 9.83423 41.3343 8.00871 41.3343ZM40.8274 28.9271H29.7194C29.2712 28.9271 28.9044 29.294 28.9044 29.7423C28.9044 30.1907 29.2712 30.5575 29.7194 30.5575H38.7655C40.1673 30.5575 41.3082 31.6988 41.3082 33.1009C41.3082 34.503 40.1673 35.6443 38.7655 35.6443H29.7194C29.2712 35.6443 28.9044 36.0111 28.9044 36.4595C28.9044 36.9078 29.2712 37.2747 29.7194 37.2747H37.7305C39.1322 37.2747 40.2732 38.4159 40.2732 39.8181C40.2732 41.2202 39.1322 42.3615 37.7305 42.3615H20.6244C19.9398 42.3615 19.2634 42.1495 18.7174 41.7501L16.0769 39.9077C15.2619 39.3208 14.2513 39.0029 13.2245 39.0029H12.8659C12.9311 38.685 12.9637 38.3507 12.9637 38.0083V19.3976C12.9637 18.9737 12.9066 18.5579 12.8007 18.1585C15.6694 17.6367 18.2773 16.202 20.1924 14.0417C22.8003 11.0989 24.4629 7.60174 25.1311 3.67253C25.2452 2.98777 25.8972 2.51496 26.5655 2.62908C27.8531 2.84918 28.8311 3.48503 29.4586 4.51217C30.7462 6.61536 30.6159 10.406 29.1 15.4765H25.5794C25.1311 15.4765 24.7644 15.8433 24.7644 16.2917C24.7644 16.74 25.1311 17.1069 25.5794 17.1069H39.7924C41.1941 17.1069 42.3351 18.2481 42.3351 19.6503C42.3351 21.0524 41.1941 22.1937 39.7924 22.1937H29.7112C29.263 22.1937 28.8963 22.5605 28.8963 23.0088C28.8963 23.4572 29.263 23.824 29.7112 23.824H40.8192C42.221 23.824 43.3619 24.9653 43.3619 26.3674C43.3619 27.7696 42.221 28.9108 40.8192 28.9108L40.8274 28.9271Z" fill="#F07C2B" stroke="black" stroke-width="0.169149"/>
</svg>
